<svg width="87" height="87" viewBox="0 0 87 87" fill="none" xmlns="http://www.w3.org/2000/svg">
<rect x="43.1998" y="1.20711" width="60.0938" height="60.0938" transform="rotate(45 43.1998 1.20711)" stroke="#0D0693"/>
<path d="M39.8415 47.656C40.9935 46.696 41.9115 45.898 42.5955 45.262C43.2795 44.614 43.8495 43.942 44.3055 43.246C44.7615 42.55 44.9895 41.866 44.9895 41.194C44.9895 40.582 44.8455 40.102 44.5575 39.754C44.2695 39.406 43.8255 39.232 43.2255 39.232C42.6255 39.232 42.1635 39.436 41.8395 39.844C41.5155 40.24 41.3475 40.786 41.3355 41.482H38.8875C38.9355 40.042 39.3615 38.95 40.1655 38.206C40.9815 37.462 42.0135 37.09 43.2615 37.09C44.6295 37.09 45.6795 37.456 46.4115 38.188C47.1435 38.908 47.5095 39.862 47.5095 41.05C47.5095 41.986 47.2575 42.88 46.7535 43.732C46.2495 44.584 45.6735 45.328 45.0255 45.964C44.3775 46.588 43.5315 47.344 42.4875 48.232H47.7975V50.32H38.9055V48.448L39.8415 47.656Z" fill="#0D0693"/>
</svg>
