<svg width="87" height="87" viewBox="0 0 87 87" fill="none" xmlns="http://www.w3.org/2000/svg">
<rect x="43.1998" y="1.20711" width="60.0938" height="60.0938" transform="rotate(45 43.1998 1.20711)" stroke="#0D0693"/>
<path d="M38.8657 40.834C38.9257 39.634 39.3457 38.71 40.1257 38.062C40.9177 37.402 41.9557 37.072 43.2397 37.072C44.1157 37.072 44.8657 37.228 45.4897 37.54C46.1137 37.84 46.5817 38.254 46.8937 38.782C47.2177 39.298 47.3797 39.886 47.3797 40.546C47.3797 41.302 47.1817 41.944 46.7857 42.472C46.4017 42.988 45.9397 43.336 45.3997 43.516V43.588C46.0957 43.804 46.6357 44.188 47.0197 44.74C47.4157 45.292 47.6137 46 47.6137 46.864C47.6137 47.584 47.4457 48.226 47.1097 48.79C46.7857 49.354 46.2997 49.798 45.6517 50.122C45.0157 50.434 44.2477 50.59 43.3477 50.59C41.9917 50.59 40.8877 50.248 40.0357 49.564C39.1837 48.88 38.7337 47.872 38.6857 46.54H41.1337C41.1577 47.128 41.3557 47.602 41.7277 47.962C42.1117 48.31 42.6337 48.484 43.2937 48.484C43.9057 48.484 44.3737 48.316 44.6977 47.98C45.0337 47.632 45.2017 47.188 45.2017 46.648C45.2017 45.928 44.9737 45.412 44.5177 45.1C44.0617 44.788 43.3537 44.632 42.3937 44.632H41.8717V42.562H42.3937C44.0977 42.562 44.9497 41.992 44.9497 40.852C44.9497 40.336 44.7937 39.934 44.4817 39.646C44.1817 39.358 43.7437 39.214 43.1677 39.214C42.6037 39.214 42.1657 39.37 41.8537 39.682C41.5537 39.982 41.3797 40.366 41.3317 40.834H38.8657Z" fill="#0D0693"/>
</svg>
