<svg width="16" height="19" viewBox="0 0 16 19" fill="none" xmlns="http://www.w3.org/2000/svg">
<path d="M5.20312 10.875C5.41406 10.875 5.625 10.6992 5.625 10.4531V9.04688C5.625 8.83594 5.41406 8.625 5.20312 8.625H3.79688C3.55078 8.625 3.375 8.83594 3.375 9.04688V10.4531C3.375 10.6992 3.55078 10.875 3.79688 10.875H5.20312ZM9 10.4531V9.04688C9 8.83594 8.78906 8.625 8.57812 8.625H7.17188C6.92578 8.625 6.75 8.83594 6.75 9.04688V10.4531C6.75 10.6992 6.92578 10.875 7.17188 10.875H8.57812C8.78906 10.875 9 10.6992 9 10.4531ZM12.375 10.4531V9.04688C12.375 8.83594 12.1641 8.625 11.9531 8.625H10.5469C10.3008 8.625 10.125 8.83594 10.125 9.04688V10.4531C10.125 10.6992 10.3008 10.875 10.5469 10.875H11.9531C12.1641 10.875 12.375 10.6992 12.375 10.4531ZM9 13.8281V12.4219C9 12.2109 8.78906 12 8.57812 12H7.17188C6.92578 12 6.75 12.2109 6.75 12.4219V13.8281C6.75 14.0742 6.92578 14.25 7.17188 14.25H8.57812C8.78906 14.25 9 14.0742 9 13.8281ZM5.625 13.8281V12.4219C5.625 12.2109 5.41406 12 5.20312 12H3.79688C3.55078 12 3.375 12.2109 3.375 12.4219V13.8281C3.375 14.0742 3.55078 14.25 3.79688 14.25H5.20312C5.41406 14.25 5.625 14.0742 5.625 13.8281ZM12.375 13.8281V12.4219C12.375 12.2109 12.1641 12 11.9531 12H10.5469C10.3008 12 10.125 12.2109 10.125 12.4219V13.8281C10.125 14.0742 10.3008 14.25 10.5469 14.25H11.9531C12.1641 14.25 12.375 14.0742 12.375 13.8281ZM15.75 4.6875C15.75 3.77344 14.9766 3 14.0625 3H12.375V1.17188C12.375 0.960938 12.1641 0.75 11.9531 0.75H10.5469C10.3008 0.75 10.125 0.960938 10.125 1.17188V3H5.625V1.17188C5.625 0.960938 5.41406 0.75 5.20312 0.75H3.79688C3.55078 0.75 3.375 0.960938 3.375 1.17188V3H1.6875C0.738281 3 0 3.77344 0 4.6875V17.0625C0 18.0117 0.738281 18.75 1.6875 18.75H14.0625C14.9766 18.75 15.75 18.0117 15.75 17.0625V4.6875ZM14.0625 16.8516C14.0625 16.9922 13.957 17.0625 13.8516 17.0625H1.89844C1.75781 17.0625 1.6875 16.9922 1.6875 16.8516V6.375H14.0625V16.8516Z" fill="#1A0FF5"/>
</svg>
