<svg width="64" height="64" viewBox="0 0 64 64" fill="none" xmlns="http://www.w3.org/2000/svg">
<path d="M38.8576 20.3289C38.9937 20.2788 39.1112 20.1882 39.1941 20.0692C39.2771 19.9502 39.3216 19.8087 39.3216 19.6637C39.3216 19.5186 39.2771 19.3771 39.1941 19.2581C39.1112 19.1391 38.9937 19.0485 38.8576 18.9984L25.1328 14.1781L20.3288 0.469653C20.2787 0.333538 20.1881 0.216065 20.0691 0.133086C19.9502 0.0501065 19.8086 0.00561523 19.6636 0.00561523C19.5185 0.00561523 19.377 0.0501065 19.258 0.133086C19.1391 0.216065 19.0484 0.333538 18.9983 0.469653L14.178 14.1781L0.469561 18.9984C0.333446 19.0485 0.215973 19.1391 0.132994 19.2581C0.050015 19.3771 0.00552368 19.5186 0.00552368 19.6637C0.00552368 19.8087 0.050015 19.9502 0.132994 20.0692C0.215973 20.1882 0.333446 20.2788 0.469561 20.3289L14.178 25.1329L18.982 38.8577C19.0321 38.9938 19.1227 39.1112 19.2417 39.1942C19.3606 39.2772 19.5022 39.3217 19.6472 39.3217C19.7922 39.3217 19.9338 39.2772 20.0528 39.1942C20.1717 39.1112 20.2624 38.9938 20.3125 38.8577L25.1164 25.1329L38.8576 20.3289ZM23.9168 24.3476L19.6636 36.4911L15.4103 24.3476C15.3754 24.2481 15.3186 24.1578 15.244 24.0832C15.1694 24.0086 15.0791 23.9518 14.9796 23.9169L2.83609 19.6637L14.9796 15.4104C15.0791 15.3755 15.1694 15.3187 15.244 15.2441C15.3186 15.1695 15.3754 15.0792 15.4103 14.9797L19.6636 2.83619L23.9168 14.9797C23.9517 15.0792 24.0085 15.1695 24.0831 15.2441C24.1577 15.3187 24.2481 15.3755 24.3476 15.4104L36.491 19.6637L24.3476 23.9169C24.2481 23.9518 24.1577 24.0086 24.0831 24.0832C24.0085 24.1578 23.9517 24.2481 23.9168 24.3476Z" fill="#CED6FD"/>
<path d="M63.531 48.7102L53.5414 45.2149L50.0407 35.2253C49.9931 35.0868 49.9034 34.9665 49.7841 34.8814C49.6649 34.7962 49.522 34.7505 49.3755 34.7505C49.2289 34.7505 49.0861 34.7962 48.9668 34.8814C48.8475 34.9665 48.7578 35.0868 48.7102 35.2253L45.2149 45.2149L35.2253 48.7102C35.0868 48.7578 34.9665 48.8475 34.8814 48.9668C34.7962 49.0861 34.7505 49.2289 34.7505 49.3755C34.7505 49.522 34.7962 49.6649 34.8814 49.7841C34.9665 49.9034 35.0868 49.9931 35.2253 50.0407L45.2149 53.5414L48.7102 63.531C48.7603 63.6672 48.851 63.7846 48.9699 63.8676C49.0889 63.9506 49.2304 63.9951 49.3755 63.9951C49.5205 63.9951 49.6621 63.9506 49.781 63.8676C49.9 63.7846 49.9906 63.6672 50.0407 63.531L53.5414 53.5414L63.531 50.0407C63.6672 49.9906 63.7846 49.9 63.8676 49.781C63.9506 49.6621 63.9951 49.5205 63.9951 49.3755C63.9951 49.2304 63.9506 49.0889 63.8676 48.9699C63.7846 48.851 63.6672 48.7603 63.531 48.7102ZM52.7562 52.3473C52.6567 52.3822 52.5663 52.439 52.4918 52.5136C52.4172 52.5882 52.3604 52.6785 52.3254 52.778L49.3755 61.1918L46.4309 52.778C46.396 52.6785 46.3392 52.5882 46.2646 52.5136C46.19 52.439 46.0997 52.3822 46.0002 52.3473L37.5864 49.3755L46.0002 46.4309C46.0997 46.396 46.19 46.3392 46.2646 46.2646C46.3392 46.19 46.396 46.0997 46.4309 46.0002L49.3755 37.5864L52.3473 46.0002C52.3822 46.0997 52.439 46.19 52.5136 46.2646C52.5882 46.3392 52.6785 46.396 52.778 46.4309L61.1918 49.3755L52.7562 52.3473Z" fill="#CED6FD"/>
<path d="M56.017 5.04933H58.9561V7.98296C58.9561 8.16952 59.0302 8.34843 59.1622 8.48035C59.2941 8.61227 59.473 8.68638 59.6595 8.68638C59.8461 8.68638 60.025 8.61227 60.1569 8.48035C60.2888 8.34843 60.363 8.16952 60.363 7.98296V5.04933H63.2966C63.4831 5.04933 63.6621 4.97522 63.794 4.84331C63.9259 4.71139 64 4.53247 64 4.34591C64 4.15936 63.9259 3.98044 63.794 3.84852C63.6621 3.71661 63.4831 3.6425 63.2966 3.6425H60.363V0.703417C60.363 0.516859 60.2888 0.337942 60.1569 0.206026C60.025 0.0741097 59.8461 0 59.6595 0C59.473 0 59.2941 0.0741097 59.1622 0.206026C59.0302 0.337942 58.9561 0.516859 58.9561 0.703417V3.6425H56.017C55.8305 3.6425 55.6516 3.71661 55.5197 3.84852C55.3877 3.98044 55.3136 4.15936 55.3136 4.34591C55.3136 4.53247 55.3877 4.71139 55.5197 4.84331C55.6516 4.97522 55.8305 5.04933 56.017 5.04933Z" fill="#CED6FD"/>
<path d="M30.4378 58.9562H27.4987V56.0171C27.4987 55.9248 27.4805 55.8333 27.4451 55.7479C27.4098 55.6626 27.358 55.5851 27.2927 55.5197C27.2273 55.4544 27.1498 55.4026 27.0645 55.3673C26.9791 55.3319 26.8876 55.3137 26.7953 55.3137C26.7029 55.3137 26.6114 55.3319 26.5261 55.3673C26.4407 55.4026 26.3632 55.4544 26.2979 55.5197C26.2326 55.5851 26.1807 55.6626 26.1454 55.7479C26.11 55.8333 26.0918 55.9248 26.0918 56.0171V58.9562H23.1582C22.9717 58.9562 22.7927 59.0303 22.6608 59.1622C22.5289 59.2942 22.4548 59.4731 22.4548 59.6596C22.4548 59.8462 22.5289 60.0251 22.6608 60.157C22.7927 60.2889 22.9717 60.363 23.1582 60.363H26.0918V63.2967C26.0918 63.3891 26.11 63.4805 26.1454 63.5659C26.1807 63.6512 26.2326 63.7287 26.2979 63.7941C26.3632 63.8594 26.4407 63.9112 26.5261 63.9465C26.6114 63.9819 26.7029 64.0001 26.7953 64.0001C26.8876 64.0001 26.9791 63.9819 27.0645 63.9465C27.1498 63.9112 27.2273 63.8594 27.2927 63.7941C27.358 63.7287 27.4098 63.6512 27.4451 63.5659C27.4805 63.4805 27.4987 63.3891 27.4987 63.2967V60.363H30.4378C30.6243 60.363 30.8032 60.2889 30.9352 60.157C31.0671 60.0251 31.1412 59.8462 31.1412 59.6596C31.1412 59.4731 31.0671 59.2942 30.9352 59.1622C30.8032 59.0303 30.6243 58.9562 30.4378 58.9562Z" fill="#CED6FD"/>
<path d="M63.2966 28.2839H60.363V25.3448C60.363 25.1582 60.2888 24.9793 60.1569 24.8474C60.025 24.7155 59.8461 24.6414 59.6595 24.6414C59.473 24.6414 59.2941 24.7155 59.1622 24.8474C59.0302 24.9793 58.9561 25.1582 58.9561 25.3448V28.2839H56.017C55.8305 28.2839 55.6516 28.358 55.5197 28.4899C55.3877 28.6218 55.3136 28.8007 55.3136 28.9873C55.3136 29.1738 55.3877 29.3527 55.5197 29.4847C55.6516 29.6166 55.8305 29.6907 56.017 29.6907H58.9561V32.6243C58.9561 32.8109 59.0302 32.9898 59.1622 33.1217C59.2941 33.2536 59.473 33.3277 59.6595 33.3277C59.8461 33.3277 60.025 33.2536 60.1569 33.1217C60.2888 32.9898 60.363 32.8109 60.363 32.6243V29.6907H63.2966C63.389 29.6907 63.4804 29.6725 63.5658 29.6371C63.6511 29.6018 63.7287 29.55 63.794 29.4847C63.8593 29.4193 63.9111 29.3418 63.9465 29.2565C63.9818 29.1711 64 29.0796 64 28.9873C64 28.8949 63.9818 28.8034 63.9465 28.7181C63.9111 28.6327 63.8593 28.5552 63.794 28.4899C63.7287 28.4246 63.6511 28.3727 63.5658 28.3374C63.4804 28.302 63.389 28.2839 63.2966 28.2839Z" fill="#CED6FD"/>
<path d="M35.956 37.2374C35.9474 37.3354 35.9593 37.4341 35.9908 37.5272C36.0224 37.6203 36.073 37.7058 36.1394 37.7783C36.2058 37.8508 36.2866 37.9087 36.3766 37.9484C36.4666 37.988 36.5638 38.0084 36.6622 38.0084C36.7605 38.0084 36.8577 37.988 36.9477 37.9484C37.0377 37.9087 37.1185 37.8508 37.1849 37.7783C37.2513 37.7058 37.3019 37.6203 37.3335 37.5272C37.3651 37.4341 37.3769 37.3354 37.3683 37.2374V35.2908H39.315C39.5015 35.2908 39.6804 35.2167 39.8124 35.0848C39.9443 34.9528 40.0184 34.7739 40.0184 34.5874C40.0184 34.4008 39.9443 34.2219 39.8124 34.09C39.6804 33.9581 39.5015 33.8839 39.315 33.8839H37.3683V31.9373C37.3528 31.7607 37.2717 31.5964 37.1409 31.4767C37.0102 31.3569 36.8394 31.2905 36.6622 31.2905C36.4849 31.2905 36.3141 31.3569 36.1834 31.4767C36.0527 31.5964 35.9716 31.7607 35.956 31.9373V33.8839H34.0094C33.8228 33.8839 33.6439 33.9581 33.512 34.09C33.38 34.2219 33.3059 34.4008 33.3059 34.5874C33.3059 34.7739 33.38 34.9528 33.512 35.0848C33.6439 35.2167 33.8228 35.2908 34.0094 35.2908H35.956V37.2374Z" fill="#CED6FD"/>
<path d="M11.8817 46.2783C11.8817 46.1859 11.8635 46.0945 11.8282 46.0091C11.7928 45.9238 11.741 45.8462 11.6757 45.7809C11.6104 45.7156 11.5329 45.6638 11.4475 45.6284C11.3622 45.5931 11.2707 45.5749 11.1783 45.5749H6.64701V41.0381C6.63148 40.8615 6.55037 40.6972 6.41965 40.5775C6.28894 40.4578 6.11812 40.3914 5.94087 40.3914C5.76362 40.3914 5.5928 40.4578 5.46209 40.5775C5.33138 40.6972 5.25026 40.8615 5.23473 41.0381V45.5749H0.703417C0.516859 45.5749 0.337942 45.649 0.206026 45.7809C0.0741097 45.9128 0 46.0917 0 46.2783C0 46.4649 0.0741097 46.6438 0.206026 46.7757C0.337942 46.9076 0.516859 46.9817 0.703417 46.9817H5.23473V51.513C5.25026 51.6896 5.33138 51.8539 5.46209 51.9737C5.5928 52.0934 5.76362 52.1598 5.94087 52.1598C6.11812 52.1598 6.28894 52.0934 6.41965 51.9737C6.55037 51.8539 6.63148 51.6896 6.64701 51.513V46.9817H11.1783C11.3649 46.9817 11.5438 46.9076 11.6757 46.7757C11.8076 46.6438 11.8817 46.4649 11.8817 46.2783Z" fill="#CED6FD"/>
<path d="M33.9603 6.11265C34.6951 6.11265 35.2908 5.51696 35.2908 4.78215C35.2908 4.04734 34.6951 3.45166 33.9603 3.45166C33.2255 3.45166 32.6298 4.04734 32.6298 4.78215C32.6298 5.51696 33.2255 6.11265 33.9603 6.11265Z" fill="#CED6FD"/>
<path d="M1.33049 9.31333C2.0653 9.31333 2.66099 8.71765 2.66099 7.98284C2.66099 7.24803 2.0653 6.65234 1.33049 6.65234C0.595682 6.65234 0 7.24803 0 7.98284C0 8.71765 0.595682 9.31333 1.33049 9.31333Z" fill="#CED6FD"/>
<path d="M23.6163 46.2782C23.6163 46.5414 23.6943 46.7986 23.8405 47.0174C23.9867 47.2362 24.1945 47.4068 24.4376 47.5075C24.6807 47.6082 24.9482 47.6345 25.2063 47.5832C25.4644 47.5318 25.7015 47.4051 25.8876 47.219C26.0736 47.033 26.2004 46.7959 26.2517 46.5378C26.303 46.2797 26.2767 46.0122 26.176 45.7691C26.0753 45.526 25.9047 45.3182 25.6859 45.172C25.4671 45.0258 25.2099 44.9478 24.9468 44.9478C24.5939 44.9478 24.2555 45.0879 24.006 45.3374C23.7564 45.587 23.6163 45.9254 23.6163 46.2782Z" fill="#CED6FD"/>
<path d="M10.6767 63.9999C11.4115 63.9999 12.0071 63.4042 12.0071 62.6694C12.0071 61.9346 11.4115 61.3389 10.6767 61.3389C9.94184 61.3389 9.34616 61.9346 9.34616 62.6694C9.34616 63.4042 9.94184 63.9999 10.6767 63.9999Z" fill="#CED6FD"/>
<path d="M49.2337 20.9935C49.9685 20.9935 50.5642 20.3978 50.5642 19.663C50.5642 18.9282 49.9685 18.3325 49.2337 18.3325C48.4989 18.3325 47.9032 18.9282 47.9032 19.663C47.9032 20.3978 48.4989 20.9935 49.2337 20.9935Z" fill="#CED6FD"/>
</svg>
