<svg width="64" height="64" viewBox="0 0 64 64" fill="none" xmlns="http://www.w3.org/2000/svg">
<g clip-path="url(#clip0_107:1052)">
<path d="M53.9923 0C51.3384 0.00250809 48.7939 1.05754 46.9169 2.93367C45.0399 4.8098 43.9836 7.35383 43.9799 10.0077V14.5967H34.5268C34.4297 14.5967 34.3335 14.6159 34.2438 14.653C34.1541 14.6902 34.0725 14.7447 34.0039 14.8134C33.9352 14.882 33.8807 14.9636 33.8436 15.0533C33.8064 15.143 33.7873 15.2392 33.7873 15.3363C33.7873 15.4334 33.8064 15.5296 33.8436 15.6193C33.8807 15.709 33.9352 15.7906 34.0039 15.8592C34.0725 15.9279 34.1541 15.9824 34.2438 16.0196C34.3335 16.0567 34.4297 16.0759 34.5268 16.0759H43.9799V54.0018C43.9793 55.7142 44.4185 57.3982 45.2552 58.8923C46.0919 60.3864 47.2982 61.6407 48.7585 62.5351H1.47911V40.3722C1.47911 40.176 1.40119 39.9879 1.2625 39.8492C1.12381 39.7105 0.935698 39.6326 0.739556 39.6326C0.543413 39.6326 0.355304 39.7105 0.216611 39.8492C0.0779172 39.9879 0 40.176 0 40.3722L0 63.2604C0 63.4566 0.0779172 63.6447 0.216611 63.7834C0.355304 63.9221 0.543413 64 0.739556 64H53.9923C56.6457 63.9975 59.1898 62.9423 61.066 61.066C62.9423 59.1898 63.9975 56.6457 64 53.9923V10.0077C63.9975 7.35427 62.9423 4.81023 61.066 2.93396C59.1898 1.0577 56.6457 0.00251035 53.9923 0V0ZM53.9923 62.5161C52.3046 62.5161 50.6547 62.0157 49.2514 61.078C47.8481 60.1404 46.7544 58.8076 46.1085 57.2484C45.4627 55.6891 45.2937 53.9733 45.6229 52.318C45.9522 50.6627 46.7649 49.1422 47.9583 47.9488C49.1517 46.7554 50.6722 45.9427 52.3275 45.6134C53.9828 45.2842 55.6986 45.4532 57.2579 46.099C58.8171 46.7449 60.1499 47.8386 61.0875 49.2419C62.0252 50.6452 62.5256 52.2951 62.5256 53.9828C62.5256 56.246 61.6266 58.4165 60.0263 60.0168C58.426 61.6171 56.2555 62.5161 53.9923 62.5161ZM53.9923 43.9799C52.28 43.9802 50.5964 44.4197 49.1025 45.2564C47.6085 46.093 46.354 47.2988 45.459 48.7585V10.0077C45.459 8.88709 45.6797 7.77745 46.1085 6.74214C46.5374 5.70683 47.1659 4.76612 47.9583 3.97373C48.7507 3.18133 49.6914 2.55277 50.7267 2.12393C51.762 1.69509 52.8717 1.47437 53.9923 1.47437C55.1129 1.47437 56.2225 1.69509 57.2579 2.12393C58.2932 2.55277 59.2339 3.18133 60.0263 3.97373C60.8187 4.76612 61.4472 5.70683 61.8761 6.74214C62.3049 7.77745 62.5256 8.88709 62.5256 10.0077V48.7585C61.6306 47.2988 60.3761 46.093 58.8821 45.2564C57.3882 44.4197 55.7046 43.9802 53.9923 43.9799Z" fill="#CED6FD"/>
<path d="M53.9923 49.5979C53.1231 49.5979 52.2734 49.8556 51.5507 50.3385C50.828 50.8214 50.2648 51.5078 49.9322 52.3108C49.5995 53.1138 49.5125 53.9974 49.6821 54.8499C49.8516 55.7024 50.2702 56.4855 50.8848 57.1001C51.4994 57.7147 52.2825 58.1332 53.1349 58.3028C53.9874 58.4724 54.871 58.3853 55.6741 58.0527C56.4771 57.7201 57.1634 57.1568 57.6463 56.4341C58.1292 55.7114 58.387 54.8617 58.387 53.9926C58.387 52.827 57.9239 51.7092 57.0998 50.8851C56.2756 50.0609 55.1578 49.5979 53.9923 49.5979ZM53.9923 56.9034C53.4152 56.9043 52.8509 56.734 52.3707 56.414C51.8905 56.094 51.5161 55.6387 51.2948 55.1058C51.0736 54.5728 51.0154 53.9862 51.1278 53.4202C51.2401 52.8542 51.5179 52.3343 51.9259 51.9262C52.334 51.5182 52.8539 51.2404 53.4199 51.1281C53.9859 51.0157 54.5725 51.0739 55.1055 51.2951C55.6384 51.5164 56.0937 51.8908 56.4137 52.371C56.7337 52.8512 56.904 53.4155 56.9031 53.9926C56.8969 54.7613 56.5877 55.4966 56.0428 56.0389C55.4979 56.5812 54.7611 56.8867 53.9923 56.8892V56.9034Z" fill="#CED6FD"/>
<path d="M49.3369 23.9172C49.1416 23.9172 48.9542 23.9945 48.8156 24.1322C48.6771 24.2698 48.5986 24.4567 48.5973 24.6521V40.4198C48.5973 40.6159 48.6753 40.804 48.8139 40.9427C48.9526 41.0814 49.1407 41.1593 49.3369 41.1593C49.533 41.1593 49.7211 41.0814 49.8598 40.9427C49.9985 40.804 50.0764 40.6159 50.0764 40.4198V24.6521C50.0752 24.4567 49.9967 24.2698 49.8582 24.1322C49.7196 23.9945 49.5322 23.9172 49.3369 23.9172Z" fill="#CED6FD"/>
<path d="M49.3369 16.0476C49.1407 16.0476 48.9526 16.1255 48.8139 16.2642C48.6753 16.4029 48.5973 16.591 48.5973 16.7872V20.3285C48.5973 20.5246 48.6753 20.7127 48.8139 20.8514C48.9526 20.9901 49.1407 21.0681 49.3369 21.0681C49.533 21.0681 49.7211 20.9901 49.8598 20.8514C49.9985 20.7127 50.0764 20.5246 50.0764 20.3285V16.7872C50.0764 16.591 49.9985 16.4029 49.8598 16.2642C49.7211 16.1255 49.533 16.0476 49.3369 16.0476Z" fill="#CED6FD"/>
<path d="M15.5639 40.6757C19.6876 40.6707 23.6413 39.0313 26.5586 36.1166C29.4759 33.202 31.1189 29.2499 31.1277 25.1261C31.1277 12.5347 16.6447 0.663849 16.0284 0.166072C15.8963 0.053214 15.7282 -0.00878906 15.5544 -0.00878906C15.3806 -0.00878906 15.2125 0.053214 15.0803 0.166072C14.483 0.663849 0 12.5347 0 25.1261C0.00877899 29.2499 1.65181 33.202 4.5691 36.1166C7.4864 39.0313 11.4401 40.6707 15.5639 40.6757ZM15.5639 1.71155C18.0527 3.86385 29.6486 14.4641 29.6486 25.1261C29.6486 28.8616 28.1647 32.4441 25.5233 35.0855C22.8819 37.7269 19.2994 39.2108 15.5639 39.2108C11.8283 39.2108 8.24584 37.7269 5.60444 35.0855C2.96303 32.4441 1.47911 28.8616 1.47911 25.1261C1.47911 14.4641 13.075 3.86385 15.5639 1.71155Z" fill="#CED6FD"/>
<path d="M15.5638 34.1905C15.76 34.1905 15.9481 34.1125 16.0868 33.9738C16.2255 33.8352 16.3034 33.647 16.3034 33.4509C16.3034 33.2548 16.2255 33.0667 16.0868 32.928C15.9481 32.7893 15.76 32.7113 15.5638 32.7113C13.5521 32.7113 11.6228 31.9122 10.2003 30.4897C8.77781 29.0672 7.97866 27.1379 7.97866 25.1262C7.98685 25.0237 7.97376 24.9207 7.94019 24.8236C7.90662 24.7265 7.85331 24.6374 7.78361 24.5619C7.71392 24.4864 7.62935 24.4262 7.53523 24.385C7.44111 24.3438 7.33948 24.3225 7.23674 24.3225C7.13399 24.3225 7.03236 24.3438 6.93824 24.385C6.84412 24.4262 6.75955 24.4864 6.68986 24.5619C6.62016 24.6374 6.56685 24.7265 6.53328 24.8236C6.49972 24.9207 6.48662 25.0237 6.49481 25.1262C6.50232 27.5287 7.46036 29.8306 9.15965 31.529C10.8589 33.2274 13.1613 34.1842 15.5638 34.1905Z" fill="#CED6FD"/>
</g>
<defs>
<clipPath id="clip0_107:1052">
<rect width="64" height="64" fill="white"/>
</clipPath>
</defs>
</svg>
