<svg width="64" height="64" viewBox="0 0 64 64" fill="none" xmlns="http://www.w3.org/2000/svg">
<path d="M17.7151 13.4848C16.8344 13.4881 15.9726 13.2299 15.2388 12.743C14.505 12.2561 13.9322 11.5624 13.5929 10.7498C13.2537 9.93709 13.1632 9.04201 13.333 8.17789C13.5028 7.31377 13.9252 6.51948 14.5468 5.89561C15.1684 5.27175 15.9611 4.84638 16.8246 4.67337C17.6881 4.50036 18.5835 4.58751 19.3974 4.92376C20.2113 5.26001 20.9071 5.83025 21.3967 6.56225C21.8863 7.29425 22.1477 8.15509 22.1477 9.03574C22.1456 10.2122 21.6784 11.3401 20.848 12.1735C20.0177 13.007 18.8915 13.4783 17.7151 13.4848V13.4848Z" stroke="#1A0FF5" stroke-width="2" stroke-linecap="round" stroke-linejoin="round"/>
<path d="M28.5788 29.9326L28.1511 35.8044C28.0031 37.4492 25.8073 38.8555 24.0392 39.0939H23.8089L22.452 57.3673C22.4276 57.7138 22.2752 58.0387 22.0243 58.2789C21.7735 58.5191 21.4422 58.6573 21.0951 58.6667H14.3351C13.9876 58.6557 13.6564 58.5172 13.4046 58.2775C13.1528 58.0378 12.998 57.7138 12.9699 57.3673L11.6294 39.1433H11.3909C9.62281 38.8801 7.42705 37.4985 7.27902 35.8538L6.27571 22.3667V22.1035C6.27433 20.8338 6.76246 19.6124 7.63859 18.6934C8.51472 17.7743 9.71141 17.2284 10.9797 17.1692H24.434C25.7052 17.2243 26.906 17.7684 27.7856 18.6879C28.6652 19.6073 29.1556 20.8311 29.1544 22.1035L28.9077 25.4506" stroke="#1A0FF5" stroke-width="2" stroke-linecap="round" stroke-linejoin="round"/>
<path d="M17.7069 39.6449V58.6666" stroke="#1A0FF5" stroke-width="2" stroke-linecap="round" stroke-linejoin="round"/>
<path d="M11.6294 39.1432L10.5028 23.9456" stroke="#1A0FF5" stroke-width="2" stroke-linecap="round" stroke-linejoin="round"/>
<path d="M46.7205 13.4849C45.8406 13.4849 44.9804 13.2239 44.2487 12.7351C43.5171 12.2462 42.9468 11.5513 42.6101 10.7384C42.2734 9.9254 42.1852 9.03083 42.3569 8.16779C42.5286 7.30475 42.9523 6.512 43.5745 5.88978C44.1968 5.26756 44.9895 4.84383 45.8525 4.67216C46.7156 4.50049 47.6102 4.5886 48.4231 4.92534C49.2361 5.26208 49.9309 5.83233 50.4198 6.56398C50.9087 7.29563 51.1696 8.15582 51.1696 9.03577C51.1674 10.2151 50.698 11.3455 49.8641 12.1794C49.0302 13.0133 47.8998 13.4827 46.7205 13.4849V13.4849Z" stroke="#1A0FF5" stroke-width="2" stroke-linecap="round" stroke-linejoin="round"/>
<path d="M35.5196 25.4753L35.3058 22.3667C35.2944 22.2793 35.2944 22.1908 35.3058 22.1035C35.3044 20.8338 35.7926 19.6124 36.6687 18.6934C37.5448 17.7743 38.7415 17.2284 40.0099 17.1692H53.4394C54.7106 17.2243 55.9114 17.7684 56.791 18.6879C57.6707 19.6073 58.1611 20.8311 58.1599 22.1035L57.1566 35.8044C57.0168 37.4492 54.8128 38.8555 53.0446 39.0939H52.8144L51.4657 57.3673C51.4377 57.7124 51.2842 58.0353 51.0341 58.2748C50.784 58.5143 50.4547 58.6537 50.1087 58.6667H43.3487C43.0007 58.6575 42.6685 58.5196 42.4163 58.2795C42.1641 58.0395 42.0099 57.7145 41.9836 57.3673L40.6349 39.1433H40.4046C38.6365 38.8801 36.4325 37.4985 36.2927 35.8538L35.8486 29.9737" stroke="#1A0FF5" stroke-width="2" stroke-linecap="round" stroke-linejoin="round"/>
<path d="M46.7206 39.6449V58.6666" stroke="#1A0FF5" stroke-width="2" stroke-linecap="round" stroke-linejoin="round"/>
<path d="M52.8144 39.1432L53.9329 23.9456" stroke="#1A0FF5" stroke-width="2" stroke-linecap="round" stroke-linejoin="round"/>
<path d="M22.4767 29.5461L17.715 25.4753L22.4767 21.4127" stroke="#1A0FF5" stroke-width="2" stroke-linecap="round" stroke-linejoin="round"/>
<path d="M17.7069 25.4752H35.4375" stroke="#1A0FF5" stroke-width="2" stroke-linecap="round" stroke-linejoin="round"/>
<path d="M41.9508 25.87L46.7206 29.9326L41.9508 34.0034" stroke="#1A0FF5" stroke-width="2" stroke-linecap="round" stroke-linejoin="round"/>
<path d="M46.7206 29.9325H28.5706" stroke="#1A0FF5" stroke-width="2" stroke-linecap="round" stroke-linejoin="round"/>
</svg>
