<svg width="64" height="64" viewBox="0 0 64 64" fill="none" xmlns="http://www.w3.org/2000/svg">
<g clip-path="url(#clip0_107:1080)">
<path d="M2.2515 47.7445C2.34262 47.7461 2.43311 47.729 2.51734 47.6942C2.60158 47.6594 2.67777 47.6077 2.74119 47.5423C13.6474 36.4338 13.839 26.4378 13.6421 23.5742H39.9627C40.9208 25.6447 45.2109 36.2315 38.1743 46.6747C38.0727 46.8257 38.0353 47.0109 38.0702 47.1896C38.1052 47.3683 38.2096 47.5257 38.3606 47.6274C38.4736 47.7043 38.6072 47.7451 38.7439 47.7445C38.8564 47.7445 38.9672 47.7168 39.0665 47.6639C39.1658 47.611 39.2506 47.5345 39.3134 47.4411C47.0952 35.8909 41.7938 24.181 41.0752 22.7172C41.0278 20.2929 40.0321 17.9836 38.3016 16.285C36.5712 14.5864 34.2439 13.6337 31.819 13.6314H30.9834V0.686627C30.9834 0.504522 30.911 0.329876 30.7823 0.201108C30.6535 0.0723408 30.4788 0 30.2967 0C30.1146 0 29.94 0.0723408 29.8112 0.201108C29.6825 0.329876 29.6101 0.504522 29.6101 0.686627V13.6314H23.6594V0.686627C23.6594 0.504522 23.587 0.329876 23.4582 0.201108C23.3295 0.0723408 23.1548 0 22.9727 0C22.7906 0 22.616 0.0723408 22.4872 0.201108C22.3584 0.329876 22.2861 0.504522 22.2861 0.686627V13.6314H21.4451C18.9907 13.6328 16.6371 14.6085 14.9016 16.344C13.166 18.0796 12.1904 20.4331 12.189 22.8876C12.189 22.8876 12.189 23.01 12.189 23.0313C12.189 23.143 13.9242 34.2089 1.75649 46.6055C1.66241 46.7021 1.59886 46.8242 1.57377 46.9567C1.54867 47.0892 1.56313 47.2261 1.61536 47.3504C1.66758 47.4748 1.75525 47.5809 1.86743 47.6558C1.97961 47.7306 2.11134 47.7707 2.24618 47.7711L2.2515 47.7445ZM21.4451 15.0047H31.819C33.7904 15.0075 35.6894 15.7473 37.1431 17.0789C38.5968 18.4104 39.5 20.2374 39.6753 22.2009H13.5941C13.7694 20.2383 14.6719 18.4121 16.1244 17.0807C17.577 15.7492 19.4747 15.0088 21.4451 15.0047Z" fill="#CED6FD"/>
<path d="M18.6666 31.2334C18.5749 31.2334 18.484 31.2516 18.3994 31.2871C18.3147 31.3225 18.238 31.3744 18.1736 31.4398C18.1092 31.5052 18.0584 31.5827 18.0243 31.6679C17.9901 31.7531 17.9733 31.8442 17.9747 31.936C18.0971 38.8555 11.1776 46.5202 11.1138 46.5947C10.9935 46.7325 10.9327 46.9124 10.9447 47.0949C10.9566 47.2774 11.0404 47.4478 11.1776 47.5687C11.3131 47.6893 11.4906 47.7519 11.6718 47.7429C11.853 47.734 12.0234 47.6542 12.1464 47.5208C12.4285 47.1908 19.4544 39.3878 19.3533 31.936C19.3547 31.8447 19.338 31.754 19.3042 31.6692C19.2704 31.5843 19.2201 31.507 19.1563 31.4417C19.0925 31.3764 19.0163 31.3244 18.9323 31.2886C18.8483 31.2529 18.758 31.2341 18.6666 31.2334Z" fill="#CED6FD"/>
<path d="M18.0652 47.6115C18.186 47.6988 18.3314 47.7454 18.4804 47.7446C18.584 47.7431 18.6858 47.7179 18.7781 47.6708C18.8704 47.6238 18.9507 47.5561 19.0127 47.4731C19.2575 47.1431 25.0486 39.34 24.9368 31.9149C24.9368 31.7328 24.8645 31.5581 24.7357 31.4294C24.6069 31.3006 24.4323 31.2283 24.2502 31.2283C24.0681 31.2283 23.8934 31.3006 23.7647 31.4294C23.6359 31.5581 23.5636 31.7328 23.5636 31.9149C23.6647 38.8344 17.9694 46.547 17.9109 46.6268C17.8546 46.701 17.814 46.7857 17.7913 46.8759C17.7685 46.9662 17.7643 47.06 17.7787 47.152C17.7931 47.2439 17.8259 47.332 17.8751 47.4109C17.9244 47.4899 17.989 47.5581 18.0652 47.6115Z" fill="#CED6FD"/>
<path d="M24.7239 47.6381C24.8772 47.7337 25.0617 47.7661 25.2385 47.7283C25.4152 47.6906 25.5704 47.5857 25.6713 47.4358C25.8842 47.1058 30.8716 39.3134 30.7971 31.9361C30.7971 31.754 30.7247 31.5794 30.596 31.4506C30.4672 31.3219 30.2926 31.2495 30.1105 31.2495C29.9283 31.2495 29.7537 31.3219 29.6249 31.4506C29.4962 31.5794 29.4238 31.754 29.4238 31.9361C29.509 38.9142 24.5695 46.6161 24.5216 46.6906C24.4232 46.8432 24.3893 47.0286 24.4272 47.2061C24.4651 47.3837 24.5718 47.539 24.7239 47.6381Z" fill="#CED6FD"/>
<path d="M30.9514 47.6379C31.1056 47.7339 31.2909 47.7664 31.4685 47.7287C31.6462 47.691 31.8023 47.586 31.9042 47.4357C32.1171 47.1057 37.1204 39.3132 37.0299 31.9147C37.0434 31.8159 37.0354 31.7154 37.0065 31.62C36.9775 31.5247 36.9283 31.4367 36.8621 31.3621C36.796 31.2875 36.7145 31.2281 36.6233 31.1879C36.5321 31.1477 36.4333 31.1277 36.3336 31.1292C36.2339 31.1308 36.1358 31.1539 36.0458 31.1969C35.9559 31.2399 35.8763 31.3018 35.8125 31.3784C35.7488 31.455 35.7023 31.5445 35.6763 31.6407C35.6503 31.737 35.6455 31.8377 35.662 31.936C35.7525 38.914 30.8077 46.616 30.7598 46.6905C30.6604 46.8418 30.6248 47.0262 30.6607 47.2036C30.6965 47.3811 30.8011 47.5372 30.9514 47.6379Z" fill="#CED6FD"/>
<path d="M63.34 51.5076H0.686627C0.504522 51.5076 0.329876 51.5799 0.201108 51.7087C0.0723408 51.8374 0 52.0121 0 52.1942L0 63.3399C0 63.4301 0.0177601 63.5194 0.0522664 63.6027C0.0867726 63.686 0.137349 63.7617 0.201108 63.8254C0.264868 63.8892 0.340561 63.9398 0.423866 63.9743C0.507172 64.0088 0.596458 64.0265 0.686627 64.0265H63.34C63.4304 64.0272 63.52 64.01 63.6036 63.9757C63.6872 63.9415 63.7632 63.8909 63.8271 63.827C63.891 63.7631 63.9415 63.6871 63.9758 63.6035C64.01 63.5199 64.0273 63.4303 64.0266 63.3399V52.1942C64.0266 52.104 64.0089 52.0147 63.9743 51.9314C63.9398 51.8481 63.8893 51.7724 63.8255 51.7087C63.7617 51.6449 63.6861 51.5943 63.6027 51.5598C63.5194 51.5253 63.4302 51.5076 63.34 51.5076ZM62.6534 62.6267H1.37325V52.8808H62.6268L62.6534 62.6267Z" fill="#CED6FD"/>
<path d="M45.2801 24.4844C45.2829 24.5746 45.3034 24.6634 45.3405 24.7456C45.3775 24.8279 45.4305 24.902 45.4962 24.9638C45.562 25.0256 45.6392 25.0738 45.7236 25.1057C45.808 25.1377 45.8979 25.1526 45.9881 25.1498H46.334C49.004 25.1484 51.5656 26.2062 53.4565 28.0912C55.3475 29.9762 56.4135 32.5343 56.4205 35.2043C56.4205 35.2842 56.4205 35.364 56.4205 35.4438C56.4184 35.6109 56.4763 35.7733 56.5838 35.9012C56.6912 36.0292 56.8411 36.1143 57.006 36.1411C58.1226 36.3455 59.1714 36.823 60.0587 37.5309C60.9461 38.2389 61.6446 39.1553 62.0919 40.1986C62.5393 41.2419 62.7216 42.3797 62.6227 43.5106C62.5238 44.6414 62.1467 45.7303 61.525 46.68C61.4752 46.7555 61.4408 46.84 61.4237 46.9288C61.4067 47.0175 61.4073 47.1088 61.4256 47.1973C61.4439 47.2858 61.4795 47.3699 61.5303 47.4446C61.5812 47.5193 61.6463 47.5833 61.7219 47.6328C61.8334 47.708 61.9654 47.747 62.0998 47.7446C62.2138 47.7453 62.3262 47.7175 62.4266 47.6635C62.5271 47.6096 62.6124 47.5313 62.6747 47.4359C63.3948 46.3352 63.8416 45.0785 63.9781 43.7704C64.1146 42.4622 63.9367 41.1403 63.4593 39.9148C62.9818 38.6892 62.2187 37.5953 61.2333 36.7242C60.2478 35.853 59.0687 35.2298 57.7938 34.9063C57.7119 31.9222 56.4684 29.088 54.3279 27.0072C52.1875 24.9263 49.3192 23.7634 46.334 23.7659H45.9455C45.8541 23.7679 45.7641 23.7882 45.6808 23.8257C45.5975 23.8632 45.5226 23.9171 45.4605 23.9841C45.3984 24.0512 45.3505 24.13 45.3195 24.216C45.2885 24.3019 45.2751 24.3932 45.2801 24.4844Z" fill="#CED6FD"/>
<path d="M55.3932 20.4287C56.7396 20.4287 58.0558 20.0294 59.1753 19.2814C60.2949 18.5333 61.1674 17.4701 61.6827 16.2262C62.1979 14.9822 62.3328 13.6134 62.0701 12.2928C61.8074 10.9723 61.159 9.75925 60.207 8.80717C59.2549 7.85509 58.0419 7.20672 56.7213 6.94404C55.4007 6.68137 54.0319 6.81618 52.788 7.33144C51.544 7.8467 50.4808 8.71926 49.7328 9.83879C48.9847 10.9583 48.5854 12.2745 48.5854 13.621C48.5869 15.426 49.3046 17.1568 50.5809 18.4332C51.8573 19.7096 53.5881 20.4273 55.3932 20.4287ZM55.3932 8.18649C56.4667 8.18754 57.5159 8.50685 58.408 9.10405C59.3001 9.70125 59.9951 10.5495 60.4052 11.5417C60.8153 12.5338 60.9221 13.6253 60.712 14.6781C60.5019 15.7309 59.9844 16.6977 59.2249 17.4565C58.4655 18.2152 57.4981 18.7318 56.4451 18.9408C55.3921 19.1499 54.3007 19.0421 53.309 18.631C52.3172 18.2199 51.4696 17.524 50.8733 16.6313C50.277 15.7386 49.9587 14.6892 49.9587 13.6156C49.9615 12.1762 50.5353 10.7966 51.5542 9.77976C52.573 8.76291 53.9537 8.19181 55.3932 8.19181V8.18649Z" fill="#CED6FD"/>
<path d="M42.2728 8.51622C43.0097 8.51622 43.7301 8.2977 44.3428 7.88829C44.9555 7.47889 45.4331 6.89699 45.7151 6.21617C45.9971 5.53535 46.0709 4.7862 45.9271 4.06345C45.7833 3.3407 45.4285 2.67681 44.9074 2.15574C44.3863 1.63467 43.7225 1.27981 42.9997 1.13605C42.277 0.992283 41.5278 1.06607 40.847 1.34807C40.1662 1.63007 39.5843 2.10763 39.1749 2.72035C38.7655 3.33307 38.5469 4.05343 38.5469 4.79034C38.5469 5.7785 38.9395 6.72619 39.6382 7.42493C40.337 8.12367 41.2847 8.51622 42.2728 8.51622ZM42.2728 2.40045C42.7439 2.39624 43.2056 2.53228 43.5991 2.79126C43.9926 3.05024 44.3002 3.42045 44.4827 3.85478C44.6651 4.2891 44.7143 4.76789 44.6238 5.23022C44.5333 5.69255 44.3073 6.1175 43.9746 6.45099C43.6418 6.78448 43.2174 7.01143 42.7553 7.10296C42.2931 7.19448 41.8142 7.14645 41.3795 6.96496C40.9448 6.78347 40.5739 6.47673 40.314 6.0838C40.0541 5.69086 39.917 5.22949 39.9202 4.7584C39.9202 4.13247 40.1673 3.53186 40.608 3.08727C41.0486 2.64268 41.6469 2.3901 42.2728 2.38448V2.40045Z" fill="#CED6FD"/>
</g>
<defs>
<clipPath id="clip0_107:1080">
<rect width="64" height="64" fill="white"/>
</clipPath>
</defs>
</svg>
