<svg width="18" height="19" viewBox="0 0 18 19" fill="none" xmlns="http://www.w3.org/2000/svg">
<path d="M17.4727 13.4766C17.8242 13.6172 18 13.875 18 14.25C18 14.3203 17.9883 14.3789 17.9648 14.4258L17.1211 18.082C17.0273 18.5273 16.7578 18.75 16.3125 18.75C11.8125 18.75 7.96875 17.1562 4.78125 13.9688C1.59375 10.7812 0 6.9375 0 2.4375C0 1.99219 0.222656 1.72266 0.667969 1.62891L4.32422 0.785156C4.37109 0.761719 4.42969 0.75 4.5 0.75C4.875 0.75 5.13281 0.925781 5.27344 1.27734L6.96094 5.21484C7.00781 5.30859 7.03125 5.41406 7.03125 5.53125C7.03125 5.78906 6.92578 6.01172 6.71484 6.19922L4.60547 7.92188C5.91797 10.7578 7.99219 12.832 10.8281 14.1445L12.5508 12.0352C12.7383 11.8242 12.9609 11.7188 13.2188 11.7188C13.3359 11.7188 13.4414 11.7422 13.5352 11.7891L17.4727 13.4766Z" fill="white"/>
</svg>
