<svg width="48" height="48" viewBox="0 0 48 48" fill="none" xmlns="http://www.w3.org/2000/svg">
<path d="M23.8017 1.56519L26.0348 6.09388L31.033 6.82432L27.4226 10.3408L28.2678 15.3182L23.8017 12.9704L19.3357 15.3182L20.1809 10.3408L16.5704 6.82432L21.5687 6.09388L23.8017 1.56519Z" stroke="#1A0FF5" stroke-linecap="round" stroke-linejoin="round"/>
<path d="M7.75303 12.8348L9.98608 17.3635L14.9843 18.0939L11.3739 21.6104L12.2191 26.5878L7.75303 24.24L3.28695 26.5878L4.1426 21.6104L0.521729 18.0939L5.51999 17.3635L7.75303 12.8348Z" stroke="#1A0FF5" stroke-linecap="round" stroke-linejoin="round"/>
<path d="M39.8504 12.8348L42.0835 17.3635L47.0817 18.0939L43.4713 21.6104L44.3165 26.5878L39.8504 24.24L35.3844 26.5878L36.2296 21.6104L32.6191 18.0939L37.6174 17.3635L39.8504 12.8348Z" stroke="#1A0FF5" stroke-linecap="round" stroke-linejoin="round"/>
<path d="M21.767 26.8487C17.9896 33.3913 15.047 33.1095 15.047 33.1095V45.0156H18.2818C18.4351 45.0156 18.587 45.046 18.7285 45.1051C18.87 45.1642 18.9984 45.2509 19.1061 45.36L19.6592 45.9026C19.7669 46.0117 19.8953 46.0983 20.0368 46.1574C20.1783 46.2166 20.3302 46.247 20.4835 46.2469H30.9183C31.3594 46.2014 31.7713 46.0053 32.0849 45.6918C32.3984 45.3782 32.5945 44.9663 32.64 44.5252C32.9218 41.6556 33.4644 35.1339 33.4644 34.1739C33.4644 33.7173 33.283 33.2793 32.9601 32.9564C32.6372 32.6336 32.1993 32.4522 31.7426 32.4522H25.9722C25.8169 32.4687 25.66 32.4458 25.5159 32.3856C25.3718 32.3254 25.2452 32.2299 25.1479 32.1078C24.407 30.8243 26.0453 29.113 26.5461 28.2052C28.6331 24.4278 25.2626 22.4243 23.6557 22.8939C23.1604 24.2722 22.5276 25.5971 21.767 26.8487V26.8487Z" stroke="#1A0FF5" stroke-linejoin="round"/>
<path d="M10.6331 31.6487H15.047V46.9774H10.6331" stroke="#1A0FF5" stroke-miterlimit="10"/>
</svg>
