<svg width="64" height="64" viewBox="0 0 64 64" fill="none" xmlns="http://www.w3.org/2000/svg">
<path d="M32.3711 48.0821C32.7514 49.1105 33.4062 50.015 34.2644 50.6974C35.1226 51.3798 36.1513 51.8141 37.2389 51.9531C38.3265 52.092 39.4313 51.9303 40.4335 51.4855C41.4357 51.0408 42.2968 50.3299 42.9234 49.4302C43.5501 48.5305 43.9182 47.4763 43.9879 46.382C44.0575 45.2878 43.8261 44.1954 43.3187 43.2235C42.8112 42.2516 42.0472 41.4372 41.1095 40.8689C40.1719 40.3007 39.0964 40.0001 38 40H10" stroke="#CED6FD" stroke-width="3" stroke-linecap="round" stroke-linejoin="round"/>
<path d="M24.3711 15.9181C24.7514 14.8897 25.4062 13.9852 26.2644 13.3028C27.1226 12.6204 28.1513 12.1861 29.2389 12.0472C30.3265 11.9082 31.4313 12.0699 32.4335 12.5147C33.4357 12.9595 34.2968 13.6703 34.9234 14.57C35.5501 15.4698 35.9182 16.524 35.9879 17.6182C36.0575 18.7124 35.8261 19.8048 35.3187 20.7767C34.8112 21.7487 34.0472 22.563 33.1095 23.1313C32.1719 23.6996 31.0964 24.0001 30 24.0002H6" stroke="#CED6FD" stroke-width="3" stroke-linecap="round" stroke-linejoin="round"/>
<path d="M46.3711 23.9181C46.7514 22.8897 47.4062 21.9852 48.2644 21.3028C49.1226 20.6204 50.1513 20.1861 51.2389 20.0472C52.3265 19.9082 53.4313 20.0699 54.4335 20.5147C55.4357 20.9595 56.2968 21.6703 56.9234 22.57C57.5501 23.4698 57.9182 24.524 57.9879 25.6182C58.0575 26.7124 57.8261 27.8048 57.3187 28.7767C56.8112 29.7487 56.0472 30.563 55.1095 31.1313C54.1719 31.6996 53.0964 32.0001 52 32.0002H8" stroke="#CED6FD" stroke-width="3" stroke-linecap="round" stroke-linejoin="round"/>
</svg>
