<svg width="64" height="64" viewBox="0 0 64 64" fill="none" xmlns="http://www.w3.org/2000/svg">
<path d="M63.0359 50.9795H0.683331C0.5021 50.9795 0.328292 51.0515 0.200143 51.1796C0.0719936 51.3078 0 51.4816 0 51.6628L0 62.7338C0 62.8236 0.0176749 62.9124 0.0520154 62.9953C0.086356 63.0782 0.13669 63.1536 0.200143 63.217C0.263596 63.2805 0.338926 63.3308 0.421831 63.3652C0.504737 63.3995 0.593594 63.4172 0.683331 63.4172H63.0359C63.1257 63.4172 63.2145 63.3995 63.2974 63.3652C63.3803 63.3308 63.4557 63.2805 63.5191 63.217C63.5826 63.1536 63.6329 63.0782 63.6672 62.9953C63.7016 62.9124 63.7193 62.8236 63.7193 62.7338V51.6628C63.7193 51.5731 63.7016 51.4842 63.6672 51.4013C63.6329 51.3184 63.5826 51.2431 63.5191 51.1796C63.4557 51.1162 63.3803 51.0658 63.2974 51.0315C63.2145 50.9972 63.1257 50.9795 63.0359 50.9795ZM62.3526 62.0505H1.36666V52.3515H62.3261L62.3526 62.0505Z" fill="#CED6FD"/>
<path d="M30.2625 21.0932C25.8924 19.4564 23.7365 15.6107 22.3168 13.068C22.0891 12.6655 21.8878 12.3 21.6918 11.9768C22.6158 11.1772 23.2962 10.1338 23.6555 8.9659C24.0148 7.79797 24.0384 6.55254 23.7237 5.37182C23.4089 4.19111 22.7685 3.12271 21.8755 2.28862C20.9825 1.45453 19.8729 0.888376 18.6735 0.654805C17.4741 0.421234 16.2331 0.529662 15.0924 0.967707C13.9517 1.40575 12.9571 2.15576 12.2223 3.13208C11.4875 4.1084 11.042 5.27169 10.9368 6.4891C10.8316 7.70651 11.0708 8.92897 11.6272 10.0169C11.8624 10.47 12.1486 10.8947 12.4801 11.2829C6.98693 11.5531 2.94521 14.3764 0.524419 19.6895C0.241721 20.3251 0.220489 21.0465 0.465312 21.6977C0.710134 22.3489 1.20135 22.8777 1.83281 23.1697C2.1656 23.3211 2.52662 23.4006 2.89224 23.4028C3.34575 23.4018 3.79141 23.2844 4.18653 23.0618C4.58165 22.8392 4.91299 22.5188 5.14882 22.1314C5.96917 20.8467 7.03263 19.7347 8.27943 18.8578C7.38421 22.1473 7.94571 25.4263 10.001 28.6045C9.99834 28.638 9.99834 28.6717 10.001 28.7052C10.3665 30.4162 8.34829 37.1806 2.77041 42.5572C2.16401 43.1261 1.79727 43.9048 1.74486 44.7347C1.69244 45.5645 1.9583 46.3832 2.48829 47.0239C3.01828 47.6646 3.77255 48.0792 4.59752 48.1833C5.42249 48.2874 6.25612 48.0732 6.92866 47.5842C10.1599 45.2164 13.7302 40.1364 15.5206 36.9369C16.0844 39.5245 15.9713 42.2138 15.1922 44.7449C14.9866 45.5486 15.0677 46.3989 15.4216 47.1492C15.7755 47.8995 16.38 48.5029 17.1309 48.8555C17.5336 49.0311 17.9683 49.1212 18.4076 49.1204C19.0389 49.1201 19.6564 48.9355 20.1843 48.5892C20.7122 48.2429 21.1275 47.75 21.3792 47.171C23.0703 43.3831 23.6366 39.1889 23.0108 35.0882C22.9288 34.5725 22.7884 34.0678 22.5923 33.5839L19.1174 24.9336C18.9192 24.4474 18.7908 23.9356 18.736 23.4134C18.6311 22.3446 18.8745 21.2707 19.4299 20.3516C21.607 23.3021 24.69 25.1985 28.8217 26.1414C29.4563 26.2335 30.1027 26.0923 30.6411 25.744C31.1794 25.3956 31.5731 24.8638 31.7491 24.2472C31.9251 23.6306 31.8714 22.9711 31.5981 22.3911C31.3247 21.811 30.8501 21.3499 30.2625 21.0932ZM12.4695 5.45076C12.7233 4.66445 13.161 3.95001 13.7463 3.36672C14.3315 2.78343 15.0474 2.3481 15.8345 2.09686C16.6217 1.84562 17.4574 1.7857 18.2723 1.92209C19.0873 2.05847 19.858 2.38722 20.5204 2.88106C21.1829 3.3749 21.718 4.01959 22.0815 4.76165C22.4449 5.5037 22.6261 6.32172 22.6101 7.14784C22.5942 7.97396 22.3814 8.78436 21.9895 9.5118C21.5977 10.2392 21.038 10.8627 20.3569 11.3306C20.1722 11.4638 19.9774 11.5825 19.7742 11.6855C19.5663 11.7886 19.3522 11.8788 19.1333 11.9556L18.9902 12.0033C18.5529 12.1446 18.0986 12.2265 17.6395 12.247H17.5176C17.2966 12.2542 17.0753 12.2453 16.8555 12.2205C16.6361 12.1927 16.4185 12.152 16.2039 12.0987L16.0238 12.051C15.8439 12.0035 15.667 11.9451 15.4941 11.8762C15.4544 11.8626 15.4155 11.8467 15.3776 11.8285C15.1691 11.741 14.9672 11.6383 14.7737 11.5213C14.7373 11.5021 14.7019 11.4808 14.6678 11.4577C14.4823 11.3396 14.3053 11.2086 14.1381 11.0657C13.5848 10.6154 13.1319 10.0542 12.8085 9.41832C12.4925 8.81223 12.2999 8.14951 12.2417 7.46849C12.1835 6.78747 12.2609 6.10167 12.4695 5.45076ZM3.99404 21.4587C3.81624 21.7331 3.54213 21.931 3.22572 22.0134C2.90931 22.0957 2.57351 22.0567 2.28447 21.9038C1.99542 21.751 1.77407 21.4955 1.664 21.1876C1.55394 20.8797 1.56314 20.5418 1.68979 20.2404C3.80864 15.5948 7.12995 13.1051 11.7543 12.6602C10.6488 13.9154 9.72351 15.3185 9.00513 16.829C6.96933 17.9185 5.24748 19.5127 4.00464 21.4587H3.99404ZM6.13938 46.5406C5.74093 46.8484 5.23861 46.9896 4.73817 46.9344C4.23773 46.8793 3.77819 46.6322 3.45628 46.2451C3.13438 45.858 2.97521 45.3611 3.01227 44.859C3.04934 44.3568 3.27976 43.8887 3.65503 43.5531C3.65503 43.5531 3.68681 43.5213 3.69211 43.516C8.06224 39.3101 10.6949 33.7057 11.2458 30.3685C11.5954 30.8029 11.9662 31.2372 12.3688 31.6716L12.4536 31.751C13.5496 32.6847 14.4006 33.8722 14.9326 35.2101C13.5925 37.9858 9.58782 44.0192 6.14998 46.5406H6.13938ZM30.6704 23.8371C30.599 24.174 30.3977 24.4691 30.1101 24.6585C29.8226 24.8479 29.4719 24.9163 29.1343 24.8489C24.8965 23.8901 22.0149 21.9778 19.9808 18.826C19.9232 18.7369 19.845 18.663 19.7528 18.6105C19.6606 18.5579 19.5571 18.5283 19.4511 18.5241C19.3491 18.522 19.248 18.544 19.1559 18.5881C19.0639 18.6323 18.9836 18.6975 18.9214 18.7784C18.3689 19.4342 17.9527 20.1936 17.6971 21.0122C17.4415 21.8308 17.3517 22.6921 17.4329 23.5458C17.4948 24.191 17.6482 24.8242 17.8884 25.4263L21.3634 34.103C21.5274 34.4944 21.6464 34.9031 21.7183 35.3213C22.2996 39.1745 21.7589 43.1137 20.1609 46.6678C20.0627 46.8986 19.92 47.1077 19.7408 47.2833C19.5617 47.4588 19.3497 47.5973 19.1169 47.6908C18.8842 47.7843 18.6353 47.831 18.3845 47.8281C18.1337 47.8253 17.8859 47.773 17.6554 47.6742C17.2069 47.4477 16.8462 47.0789 16.6296 46.6256C16.413 46.1722 16.3527 45.6599 16.4582 45.1687C16.4598 45.1511 16.4598 45.1333 16.4582 45.1157C19.0697 35.6391 13.9262 31.216 13.3117 30.7234C5.04288 21.8242 11.516 14.832 13.6454 12.5542L13.7726 12.4483L13.8096 12.4748C14.0109 12.6072 14.2228 12.729 14.4347 12.8403L14.6413 12.9409C14.8133 13.0255 14.9902 13.0998 15.171 13.1634C15.2399 13.1634 15.3087 13.2217 15.3776 13.2428H15.4147C15.6319 13.3117 15.8543 13.37 16.0768 13.4177L16.241 13.4494C16.4895 13.4968 16.7407 13.5287 16.9932 13.5448H17.0409C17.1733 13.5448 17.3057 13.5448 17.4382 13.5448C17.5706 13.5448 17.6236 13.5448 17.7189 13.5448H17.9838C18.1798 13.5448 18.3705 13.4971 18.5612 13.4653L18.8101 13.4177C19.0071 13.3753 19.2016 13.3222 19.3928 13.2587L19.6153 13.1899C19.8776 13.0977 20.1341 12.9898 20.3834 12.8668L20.6059 12.7449C20.7754 13.031 20.9555 13.3594 21.1356 13.7143C22.5658 16.2622 24.9601 20.5264 29.8176 22.3486C30.1158 22.4515 30.3667 22.659 30.5235 22.9327C30.6803 23.2065 30.7325 23.5278 30.6704 23.8371Z" fill="#CED6FD"/>
<path d="M62.2414 21.0932C57.8712 19.4564 55.71 15.6107 54.2957 13.068C54.0679 12.6655 53.8613 12.3053 53.6653 11.9821C54.8746 10.9399 55.6595 9.49019 55.8713 7.90784C56.0831 6.32548 55.7071 4.72041 54.8144 3.3968C53.9218 2.0732 52.5746 1.12305 51.0282 0.726427C49.4818 0.329799 47.8436 0.514257 46.4241 1.24484C44.8847 2.03193 43.7205 3.39775 43.1872 5.04242C42.6538 6.68709 42.795 8.47618 43.5796 10.0169C43.8129 10.4698 44.0973 10.8946 44.4271 11.2829C38.934 11.5531 34.8923 14.3764 32.4715 19.6895C32.2531 20.2914 32.2601 20.952 32.4913 21.5491C32.7224 22.1462 33.1621 22.6394 33.7288 22.9373C34.2956 23.2352 34.9511 23.3177 35.574 23.1696C36.1969 23.0214 36.7451 22.6526 37.117 22.1314C37.942 20.8469 39.0089 19.7351 40.2582 18.8578C39.363 22.1473 39.9457 25.4263 41.9745 28.6045C41.9745 28.6363 41.9745 28.6681 41.9745 28.7052C42.34 30.4162 40.3271 37.1806 34.7439 42.5572C34.1291 43.1245 33.7553 43.906 33.6994 44.7406C33.6434 45.5753 33.9097 46.3997 34.4433 47.0439C34.9769 47.6882 35.7372 48.1033 36.5677 48.2038C37.3982 48.3043 38.2356 48.0826 38.9075 47.5842C42.1387 45.2164 45.709 40.1364 47.4941 36.9369C48.0548 39.5331 47.9343 42.2302 47.1445 44.7661C46.94 45.5698 47.0216 46.4197 47.3754 47.1697C47.7291 47.9198 48.333 48.5233 49.0833 48.8767C49.8688 49.2134 50.7558 49.2252 51.55 48.9095C52.3442 48.5938 52.981 47.9763 53.321 47.1922C55.0135 43.4048 55.5817 39.2107 54.9578 35.1094C54.8706 34.5943 54.7285 34.09 54.534 33.605L51.0909 24.9336C50.8924 24.4478 50.7657 23.9357 50.7148 23.4134C50.6039 22.3476 50.8378 21.2745 51.3822 20.3516C53.5647 23.3021 56.6476 25.1985 60.7794 26.1414C61.4139 26.2335 62.0604 26.0923 62.5987 25.744C63.1371 25.3956 63.5308 24.8638 63.7068 24.2472C63.8827 23.6306 63.8291 22.9711 63.5557 22.3911C63.2823 21.8111 62.8078 21.3499 62.2202 21.0932H62.2414ZM44.443 5.45077C44.7595 4.47044 45.36 3.60619 46.1684 2.96756C46.9767 2.32893 47.9564 1.94469 48.9834 1.86356C50.0104 1.78242 51.0383 2.00804 51.9369 2.51181C52.8355 3.01559 53.5642 3.77482 54.0308 4.69328C54.6445 5.92396 54.7502 7.34645 54.3251 8.65431C53.9 9.96217 52.9783 11.0507 51.7583 11.6855C51.5522 11.7886 51.3399 11.8788 51.1227 11.9556L50.9744 12.0033C50.5388 12.1446 50.0863 12.2265 49.6289 12.247H49.5017C49.2824 12.254 49.0629 12.2452 48.8449 12.2205C48.6272 12.1932 48.4114 12.1525 48.1987 12.0987C48.1351 12.0987 48.0768 12.0669 48.0133 12.051C47.8332 12.0037 47.6563 11.9453 47.4835 11.8762C47.4417 11.8635 47.401 11.8476 47.3617 11.8285C47.1555 11.7417 46.9555 11.6409 46.7631 11.5266L46.6572 11.4577C46.4722 11.3408 46.2952 11.2116 46.1275 11.071C45.5782 10.6159 45.1276 10.0536 44.8032 9.41832C44.4826 8.81408 44.2857 8.15201 44.2238 7.47079C44.162 6.78958 44.2365 6.10287 44.443 5.45077ZM35.9676 21.4587C35.7951 21.7431 35.5205 21.9508 35.1999 22.0392C34.8793 22.1276 34.537 22.0902 34.2432 21.9344C33.9493 21.7787 33.7261 21.5165 33.6193 21.2016C33.5125 20.8866 33.5301 20.5427 33.6686 20.2404C35.7875 15.5948 39.1088 13.1051 43.7332 12.6602C42.6225 13.9125 41.6951 15.3161 40.9787 16.829C38.9433 17.9191 37.2216 19.5132 35.9782 21.4587H35.9676ZM38.0864 46.5407C37.688 46.8484 37.1857 46.9896 36.6852 46.9344C36.1848 46.8793 35.7252 46.6322 35.4033 46.2451C35.0814 45.858 34.9222 45.3611 34.9593 44.859C34.9964 44.3569 35.2268 43.8887 35.6021 43.5531L35.6444 43.516C40.0146 39.3101 42.6473 33.7057 43.1929 30.3685C43.5425 30.8029 43.9133 31.2372 44.3159 31.6716L44.4059 31.751C45.4995 32.6858 46.3486 33.8731 46.8797 35.2101C45.5554 37.9858 41.5613 44.0192 38.1394 46.5407H38.0864ZM62.6439 23.8371C62.6076 24.0043 62.5385 24.1627 62.4407 24.3031C62.3429 24.4436 62.2182 24.5632 62.074 24.6553C61.9297 24.7474 61.7687 24.81 61.6002 24.8396C61.4316 24.8692 61.2589 24.8651 61.0919 24.8277C56.8913 23.8689 53.9884 21.9566 51.9596 18.8048C51.9017 18.7197 51.8248 18.6493 51.7349 18.5991C51.645 18.5489 51.5447 18.5203 51.4418 18.5157C51.339 18.5111 51.2365 18.5305 51.1425 18.5724C51.0485 18.6143 50.9655 18.6776 50.9002 18.7572C50.3494 19.4139 49.9347 20.1736 49.68 20.992C49.4254 21.8104 49.336 22.6713 49.417 23.5246C49.4707 24.177 49.6207 24.8178 49.862 25.4263L53.3369 34.103C53.4975 34.4965 53.613 34.907 53.6812 35.3266C54.2617 39.1766 53.7267 43.1124 52.1397 46.6678C52.041 46.8988 51.8977 47.1081 51.7181 47.2837C51.5385 47.4593 51.326 47.5978 51.0928 47.6912C50.8597 47.7847 50.6104 47.8313 50.3592 47.8284C50.108 47.8255 49.8598 47.7731 49.6289 47.6742C49.1744 47.4413 48.8114 47.0625 48.5982 46.5985C48.3849 46.1345 48.3338 45.6123 48.4529 45.1157C51.0591 35.655 45.905 31.2319 45.2746 30.7446C37.0058 21.8454 43.4842 14.8532 45.6137 12.5754L45.7143 12.4642L45.7514 12.4907C45.9529 12.6238 46.1616 12.7458 46.3764 12.8562L46.5777 12.9568C46.7578 13.0416 46.9379 13.1157 47.1074 13.1846L47.3087 13.2587H47.3511C47.5683 13.3276 47.7908 13.3859 48.0133 13.4336L48.1722 13.4653C48.4224 13.5131 48.6754 13.5449 48.9297 13.5607H48.9667H49.3693C49.4647 13.5607 49.56 13.5607 49.6554 13.5607H49.9149C50.1109 13.5607 50.3069 13.513 50.4976 13.4812L50.7413 13.4388C50.9373 13.3912 51.1333 13.3382 51.3293 13.2746L51.5517 13.2058C51.8123 13.1135 52.067 13.0056 52.3145 12.8826L52.537 12.7608C52.7065 13.0469 52.8919 13.3753 53.0667 13.7302C54.4917 16.2781 56.886 20.5423 61.7487 22.3645C62.0523 22.4579 62.3111 22.6594 62.476 22.9308C62.641 23.2022 62.7008 23.5246 62.6439 23.8371Z" fill="#CED6FD"/>
</svg>
