<svg width="48" height="48" viewBox="0 0 48 48" fill="none" xmlns="http://www.w3.org/2000/svg">
<path d="M46.6133 17.7866H2.00002V45.6933H46.6133V17.7866Z" stroke="#1A0FF5" stroke-miterlimit="10"/>
<path d="M6.14671 40.1066H8.93337" stroke="#1A0FF5" stroke-miterlimit="10"/>
<path d="M11.7201 40.1066H14.5201" stroke="#1A0FF5" stroke-miterlimit="10"/>
<path d="M17.3067 40.1066H20.0934" stroke="#1A0FF5" stroke-miterlimit="10"/>
<path d="M22.8933 40.1066H25.68" stroke="#1A0FF5" stroke-miterlimit="10"/>
<path d="M6.14671 34.5333H8.93337" stroke="#1A0FF5" stroke-miterlimit="10"/>
<path d="M11.7201 34.5333H14.5201" stroke="#1A0FF5" stroke-miterlimit="10"/>
<path d="M17.3067 34.5333H20.0934" stroke="#1A0FF5" stroke-miterlimit="10"/>
<path d="M22.8933 34.5333H25.68" stroke="#1A0FF5" stroke-miterlimit="10"/>
<path d="M28.4667 34.5333H31.2534" stroke="#1A0FF5" stroke-miterlimit="10"/>
<path d="M34.0534 34.5333H36.84" stroke="#1A0FF5" stroke-miterlimit="10"/>
<path d="M39.6266 34.5333H42.4266" stroke="#1A0FF5" stroke-miterlimit="10"/>
<path d="M28.4667 40.1066H31.2534" stroke="#1A0FF5" stroke-miterlimit="10"/>
<path d="M34.0534 40.1066H36.84" stroke="#1A0FF5" stroke-miterlimit="10"/>
<path d="M39.6266 40.1066H42.4266" stroke="#1A0FF5" stroke-miterlimit="10"/>
<path d="M6.14671 28.9467H8.93337" stroke="#1A0FF5" stroke-miterlimit="10"/>
<path d="M11.7201 28.9467H14.5201" stroke="#1A0FF5" stroke-miterlimit="10"/>
<path d="M17.3067 28.9467H20.0934" stroke="#1A0FF5" stroke-miterlimit="10"/>
<path d="M22.8933 28.9467H25.68" stroke="#1A0FF5" stroke-miterlimit="10"/>
<path d="M28.4667 28.9467H31.2534" stroke="#1A0FF5" stroke-miterlimit="10"/>
<path d="M34.0534 28.9467H36.84" stroke="#1A0FF5" stroke-miterlimit="10"/>
<path d="M39.6266 28.9467H42.4266" stroke="#1A0FF5" stroke-miterlimit="10"/>
<path d="M6.14671 23.36H8.93337" stroke="#1A0FF5" stroke-miterlimit="10"/>
<path d="M11.7201 23.36H14.5201" stroke="#1A0FF5" stroke-miterlimit="10"/>
<path d="M17.3067 23.36H20.0934" stroke="#1A0FF5" stroke-miterlimit="10"/>
<path d="M22.8933 23.36H25.68" stroke="#1A0FF5" stroke-miterlimit="10"/>
<path d="M28.4667 23.36H31.2534" stroke="#1A0FF5" stroke-miterlimit="10"/>
<path d="M34.0534 23.36H36.84" stroke="#1A0FF5" stroke-miterlimit="10"/>
<path d="M39.6266 23.36H42.4266" stroke="#1A0FF5" stroke-miterlimit="10"/>
<path d="M46.6133 6.62665H2.00002V17.7866H46.6133V6.62665Z" stroke="#1A0FF5" stroke-miterlimit="10"/>
<path d="M12.44 11.6133V1.33331" stroke="#1A0FF5" stroke-miterlimit="10"/>
<path d="M36.1601 11.6133V1.33331" stroke="#1A0FF5" stroke-miterlimit="10"/>
</svg>
