<svg width="64" height="64" viewBox="0 0 64 64" fill="none" xmlns="http://www.w3.org/2000/svg">
<path d="M9.63556 13.6623V34.8356C9.63323 35.3487 9.73258 35.8572 9.92786 36.3317C10.1231 36.8062 10.4105 37.2372 10.7733 37.6001L33.5644 60.3645C33.9238 60.726 34.3511 61.0128 34.8217 61.2086C35.2923 61.4043 35.797 61.5051 36.3067 61.5051C36.8164 61.5051 37.321 61.4043 37.7917 61.2086C38.2623 61.0128 38.6895 60.726 39.0489 60.3645L60.2311 39.1912C60.9574 38.4615 61.3651 37.474 61.3651 36.4445C61.3651 35.415 60.9574 34.4275 60.2311 33.6978L37.4489 10.9334C37.0894 10.5699 36.6618 10.2807 36.1905 10.0824C35.7192 9.88416 35.2135 9.78066 34.7022 9.77783H13.52C12.4898 9.77783 11.5018 10.1871 10.7733 10.9156C10.0448 11.644 9.63556 12.6321 9.63556 13.6623Z" stroke="#1A0FF5" stroke-width="2" stroke-linecap="round" stroke-linejoin="round"/>
<path d="M22.9689 28.1689C25.7622 28.1689 28.0267 25.9045 28.0267 23.1111C28.0267 20.3178 25.7622 18.0533 22.9689 18.0533C20.1756 18.0533 17.9111 20.3178 17.9111 23.1111C17.9111 25.9045 20.1756 28.1689 22.9689 28.1689Z" stroke="#1A0FF5" stroke-width="2" stroke-linecap="round" stroke-linejoin="round"/>
<path d="M9.66222 16.7023C5.12889 17.4578 1.77778 20.0356 1.77778 23.1112C1.77778 26.7823 6.52445 29.7512 12.3911 29.7512C18.2578 29.7512 22.9956 26.7823 22.9956 23.1112C22.9577 22.293 22.7319 21.4947 22.3358 20.7779C21.9396 20.0611 21.3837 19.4451 20.7111 18.9778" stroke="#1A0FF5" stroke-width="2" stroke-linecap="round" stroke-linejoin="round"/>
<path d="M24.2667 34.0445C23.6725 34.6388 23.2678 35.3958 23.1039 36.22C22.9399 37.0442 23.0241 37.8986 23.3457 38.6749C23.6672 39.4513 24.2118 40.1149 24.9106 40.5818C25.6093 41.0486 26.4308 41.2978 27.2711 41.2978C28.1115 41.2978 28.9329 41.0486 29.6317 40.5818C30.3304 40.1149 30.875 39.4513 31.1966 38.6749C31.5182 37.8986 31.6023 37.0442 31.4384 36.22C31.2744 35.3958 30.8698 34.6388 30.2756 34.0445C29.881 33.65 29.4126 33.337 28.8971 33.1235C28.3816 32.91 27.8291 32.8 27.2711 32.8C26.7131 32.8 26.1606 32.91 25.6451 33.1235C25.1296 33.337 24.6612 33.65 24.2667 34.0445V34.0445Z" stroke="#1A0FF5" stroke-width="2" stroke-linecap="round" stroke-linejoin="round"/>
<path d="M41.7956 34.1068C41.2031 34.6999 40.7998 35.4554 40.6366 36.2778C40.4735 37.1001 40.5577 37.9524 40.8788 38.7268C41.1999 39.5013 41.7433 40.1632 42.4405 40.6288C43.1376 41.0945 43.9572 41.343 44.7956 41.343C45.6339 41.343 46.4535 41.0945 47.1506 40.6288C47.8478 40.1632 48.3912 39.5013 48.7123 38.7268C49.0334 37.9524 49.1176 37.1001 48.9545 36.2778C48.7913 35.4554 48.388 34.6999 47.7956 34.1068C46.9991 33.3126 45.9203 32.8667 44.7956 32.8667C43.6708 32.8667 42.592 33.3126 41.7956 34.1068V34.1068Z" stroke="#1A0FF5" stroke-width="2" stroke-linecap="round" stroke-linejoin="round"/>
<path d="M36.08 23.2267V50.8711" stroke="#1A0FF5" stroke-width="2" stroke-linecap="round" stroke-linejoin="round"/>
</svg>
