<svg width="59" height="49" viewBox="0 0 59 49" fill="none" xmlns="http://www.w3.org/2000/svg">
<path d="M8.44834 26.1711C8.23086 25.2928 8.11936 24.2954 8.11936 23.1746C8.11936 19.7837 9.412 16.4231 12.0532 13.0844C14.824 9.73696 18.0678 7.29516 21.7857 5.74731L22.2818 5.54077L22.0401 5.06081L20.3853 1.77509L20.1667 1.34113L19.7267 1.54719C13.1645 4.62012 8.30049 8.63196 5.17364 13.5987C2.057 18.5492 0.5 24.0575 0.5 30.1111C0.5 31.6086 0.688092 33.5237 1.05782 35.8484C1.43708 38.233 2.32232 40.4308 3.71035 42.437C4.85201 44.1981 6.31173 45.6464 8.08585 46.7786C9.90451 47.9393 12.2124 48.5 14.9742 48.5C18.289 48.5 21.1695 47.3559 23.5909 45.0785C26.0276 42.7868 27.2419 39.8527 27.2419 36.3175C27.2419 32.5508 26.0349 29.5445 23.5804 27.3643C21.1576 25.2122 18.2806 24.1349 14.9742 24.1349C12.5426 24.1349 10.3623 24.814 8.44834 26.1711ZM39.7064 26.1711C39.4889 25.2928 39.3774 24.2954 39.3774 23.1746C39.3774 19.7837 40.6701 16.423 43.3113 13.0843C46.0821 9.73691 49.3259 7.29514 53.0438 5.74731L53.5399 5.54077L53.2982 5.06081L51.6433 1.77509L51.4248 1.34113L50.9847 1.54719C44.4226 4.62012 39.5586 8.63196 36.4317 13.5987C33.3151 18.5492 31.7581 24.0575 31.7581 30.1111C31.7581 31.6086 31.9462 33.5237 32.3159 35.8484C32.6951 38.2329 33.5804 40.4307 34.9684 42.437C36.11 44.1981 37.5698 45.6464 39.3439 46.7786C41.1626 47.9393 43.4704 48.5 46.2323 48.5C49.5471 48.5 52.4276 47.3559 54.849 45.0785C57.2857 42.7868 58.5 39.8527 58.5 36.3175C58.5 32.5508 57.293 29.5445 54.8385 27.3643C52.4157 25.2122 49.5386 24.1349 46.2323 24.1349C43.8006 24.1349 41.6203 24.814 39.7064 26.1711Z" fill="#F5F7FF" stroke="#1A0FF5"/>
</svg>
