<svg width="48" height="48" viewBox="0 0 48 48" fill="none" xmlns="http://www.w3.org/2000/svg">
<path d="M27.1304 3.98608H35.2696C35.814 3.99969 36.3315 4.22556 36.7116 4.61547C37.0918 5.00539 37.3045 5.52846 37.3043 6.07303V44.8069C37.3045 45.3515 37.0918 45.8746 36.7116 46.2645C36.3315 46.6544 35.814 46.8803 35.2696 46.8939H4.65391C4.10042 46.8939 3.56959 46.674 3.17821 46.2826C2.78683 45.8913 2.56696 45.3604 2.56696 44.8069V6.03129C2.56696 5.4778 2.78683 4.94697 3.17821 4.55559C3.56959 4.16421 4.10042 3.94434 4.65391 3.94434H12.7722" stroke="#1A0FF5" stroke-miterlimit="10"/>
<path d="M31.2313 8.0661H33.2244V42.7722H6.68872V8.0661H8.68176" stroke="#1A0FF5" stroke-miterlimit="10" stroke-linecap="square"/>
<path d="M26.8487 8.56698L25.4087 10.0174C25.2152 10.2039 24.9573 10.3085 24.6887 10.3096H15.2348C14.9661 10.3085 14.7082 10.2039 14.5148 10.0174L13.0643 8.56698C12.8779 8.37354 12.7732 8.11564 12.7722 7.84698V4.00698C12.7722 3.73023 12.8821 3.46482 13.0778 3.26913C13.2735 3.07344 13.5389 2.9635 13.8156 2.9635H26.0869C26.3637 2.9635 26.6291 3.07344 26.8248 3.26913C27.0205 3.46482 27.1304 3.73023 27.1304 4.00698V7.84698C27.1347 7.97982 27.1119 8.11214 27.0635 8.23591C27.0151 8.35968 26.942 8.47232 26.8487 8.56698V8.56698Z" stroke="#1A0FF5" stroke-miterlimit="10"/>
<path d="M19.9617 0V2.98435" stroke="#1A0FF5" stroke-miterlimit="10"/>
<path d="M16.8939 16.1008H12.8139V20.1808H16.8939V16.1008Z" stroke="#1A0FF5" stroke-miterlimit="10"/>
<path d="M20.9844 16.1008H27.0992" stroke="#1A0FF5" stroke-miterlimit="10" stroke-linecap="square"/>
<path d="M20.9844 20.1808H23.0192" stroke="#1A0FF5" stroke-miterlimit="10" stroke-linecap="square"/>
<path d="M16.8939 24.2609H12.8139V28.3409H16.8939V24.2609Z" stroke="#1A0FF5" stroke-miterlimit="10"/>
<path d="M20.9844 24.2609H25.0644" stroke="#1A0FF5" stroke-miterlimit="10" stroke-linecap="square"/>
<path d="M20.9844 28.3513H27.0992" stroke="#1A0FF5" stroke-miterlimit="10" stroke-linecap="square"/>
<path d="M16.8939 32.4313H12.8139V36.5113H16.8939V32.4313Z" stroke="#1A0FF5" stroke-miterlimit="10"/>
<path d="M20.9844 32.4313H23.0192" stroke="#1A0FF5" stroke-miterlimit="10" stroke-linecap="square"/>
<path d="M20.9844 36.5113H27.0992" stroke="#1A0FF5" stroke-miterlimit="10" stroke-linecap="square"/>
<path d="M45.6731 44.0452L43.5861 46.08L41.4991 44.0452V21.7461C41.4991 21.5164 41.5904 21.2961 41.7528 21.1337C41.9152 20.9713 42.1355 20.88 42.3652 20.88H44.7131C44.9428 20.88 45.163 20.9713 45.3255 21.1337C45.4879 21.2961 45.5791 21.5164 45.5791 21.7461L45.6731 44.0452Z" stroke="#1A0FF5" stroke-miterlimit="10"/>
</svg>
