<svg width="62" height="32" viewBox="0 0 62 32" fill="none" xmlns="http://www.w3.org/2000/svg">
<mask id="path-1-inside-1_92:587" fill="white">
<path fill-rule="evenodd" clip-rule="evenodd" d="M45.0073 7.38461L31 0L16.9927 7.38461L31 14.7692L45.0073 7.38461ZM28.6654 16L14.6581 8.61538L0.650757 16L14.6581 23.3846L28.6654 16ZM47.3419 8.61538L61.3492 16L47.3419 23.3846L33.3346 16L47.3419 8.61538ZM45.0073 24.6154L31 17.2308L16.9927 24.6154L31 32L45.0073 24.6154Z"/>
</mask>
<path fill-rule="evenodd" clip-rule="evenodd" d="M45.0073 7.38461L31 0L16.9927 7.38461L31 14.7692L45.0073 7.38461ZM28.6654 16L14.6581 8.61538L0.650757 16L14.6581 23.3846L28.6654 16ZM47.3419 8.61538L61.3492 16L47.3419 23.3846L33.3346 16L47.3419 8.61538ZM45.0073 24.6154L31 17.2308L16.9927 24.6154L31 32L45.0073 24.6154Z" fill="#EBEFFE"/>
<path d="M31 0L31.4663 -0.884597L31 -1.13046L30.5336 -0.884597L31 0ZM45.0073 7.38461L45.4737 8.26921L47.1516 7.38461L45.4737 6.50002L45.0073 7.38461ZM16.9927 7.38461L16.5263 6.50002L14.8484 7.38461L16.5263 8.26921L16.9927 7.38461ZM31 14.7692L30.5336 15.6538L31 15.8997L31.4663 15.6538L31 14.7692ZM14.6581 8.61538L15.1244 7.73079L14.6581 7.48493L14.1917 7.73079L14.6581 8.61538ZM28.6654 16L29.1318 16.8846L30.8097 16L29.1318 15.1154L28.6654 16ZM0.650757 16L0.1844 15.1154L-1.49353 16L0.184401 16.8846L0.650757 16ZM14.6581 23.3846L14.1917 24.2692L14.6581 24.5151L15.1244 24.2692L14.6581 23.3846ZM61.3492 16L61.8156 16.8846L63.4935 16L61.8156 15.1154L61.3492 16ZM47.3419 8.61538L47.8082 7.73079L47.3419 7.48493L46.8755 7.73079L47.3419 8.61538ZM47.3419 23.3846L46.8755 24.2692L47.3419 24.5151L47.8082 24.2692L47.3419 23.3846ZM33.3346 16L32.8682 15.1154L31.1903 16L32.8682 16.8846L33.3346 16ZM31 17.2308L31.4663 16.3462L31 16.1003L30.5336 16.3462L31 17.2308ZM45.0073 24.6154L45.4737 25.5L47.1516 24.6154L45.4737 23.7308L45.0073 24.6154ZM16.9927 24.6154L16.5263 23.7308L14.8484 24.6154L16.5263 25.5L16.9927 24.6154ZM31 32L30.5336 32.8846L31 33.1305L31.4663 32.8846L31 32ZM30.5336 0.884597L44.541 8.26921L45.4737 6.50002L31.4663 -0.884597L30.5336 0.884597ZM17.459 8.26921L31.4663 0.884597L30.5336 -0.884597L16.5263 6.50002L17.459 8.26921ZM31.4663 13.8846L17.459 6.50002L16.5263 8.26921L30.5336 15.6538L31.4663 13.8846ZM44.541 6.50002L30.5336 13.8846L31.4663 15.6538L45.4737 8.26921L44.541 6.50002ZM14.1917 9.49998L28.1991 16.8846L29.1318 15.1154L15.1244 7.73079L14.1917 9.49998ZM1.11711 16.8846L15.1244 9.49998L14.1917 7.73079L0.1844 15.1154L1.11711 16.8846ZM15.1244 22.5L1.11711 15.1154L0.184401 16.8846L14.1917 24.2692L15.1244 22.5ZM28.1991 15.1154L14.1917 22.5L15.1244 24.2692L29.1318 16.8846L28.1991 15.1154ZM61.8156 15.1154L47.8082 7.73079L46.8755 9.49998L60.8829 16.8846L61.8156 15.1154ZM47.8082 24.2692L61.8156 16.8846L60.8829 15.1154L46.8755 22.5L47.8082 24.2692ZM32.8682 16.8846L46.8755 24.2692L47.8082 22.5L33.8009 15.1154L32.8682 16.8846ZM46.8755 7.73079L32.8682 15.1154L33.8009 16.8846L47.8082 9.49998L46.8755 7.73079ZM30.5336 18.1154L44.541 25.5L45.4737 23.7308L31.4663 16.3462L30.5336 18.1154ZM17.459 25.5L31.4663 18.1154L30.5336 16.3462L16.5263 23.7308L17.459 25.5ZM31.4663 31.1154L17.459 23.7308L16.5263 25.5L30.5336 32.8846L31.4663 31.1154ZM44.541 23.7308L30.5336 31.1154L31.4663 32.8846L45.4737 25.5L44.541 23.7308Z" fill="#1A0FF5" mask="url(#path-1-inside-1_92:587)"/>
</svg>
