<svg width="65" height="64" viewBox="0 0 65 64" fill="none" xmlns="http://www.w3.org/2000/svg">
<path d="M54.3352 18H10.3352C9.23064 18 8.33521 18.8954 8.33521 20V52C8.33521 53.1046 9.23064 54 10.3352 54H54.3352C55.4398 54 56.3352 53.1046 56.3352 52V20C56.3352 18.8954 55.4398 18 54.3352 18Z" stroke="#CED6FD" stroke-width="3" stroke-linecap="round" stroke-linejoin="round"/>
<path d="M42.3333 18V14C42.3333 12.9391 41.9118 11.9217 41.1617 11.1716C40.4115 10.4214 39.3941 10 38.3333 10H26.3333C25.2724 10 24.255 10.4214 23.5048 11.1716C22.7547 11.9217 22.3333 12.9391 22.3333 14V18" stroke="#CED6FD" stroke-width="3" stroke-linecap="round" stroke-linejoin="round"/>
<path d="M32.3333 29V43" stroke="#CED6FD" stroke-width="3" stroke-linecap="round" stroke-linejoin="round"/>
<path d="M39.3333 36H25.3333" stroke="#CED6FD" stroke-width="3" stroke-linecap="round" stroke-linejoin="round"/>
</svg>
