<svg width="300" height="234" viewBox="0 0 300 234" fill="none" xmlns="http://www.w3.org/2000/svg">
<g clip-path="url(#clip0_35:509)">
<path d="M62.2584 93.2255C62.1113 93.7744 61.9605 94.3373 61.8134 94.8861L237.109 141.857C237.257 141.308 237.407 140.745 237.554 140.196C237.701 139.647 237.777 139.366 237.89 138.943L62.622 91.9805C62.5089 92.4027 62.3715 92.8033 62.2584 93.2255Z" fill="#DDDDDD"/>
<path d="M168.067 27.592L178.781 30.4628C177.042 29.8761 175.277 29.3279 173.466 28.8426C171.654 28.3572 169.866 27.9535 168.067 27.592Z" fill="#DDDDDD"/>
<path d="M61.4033 96.9783C61.1431 97.9494 60.9812 98.9467 60.8053 99.9404L235.54 146.76C235.884 145.812 236.2 144.856 236.503 143.896L61.4033 96.9783Z" fill="#DDDDDD"/>
<path d="M68.128 77.4977C67.6853 78.4198 67.2464 79.3278 66.842 80.2753L240.144 126.711C240.268 125.689 240.342 124.683 240.419 123.663L68.128 77.4977Z" fill="#DDDDDD"/>
<path d="M65.9826 82.2472C65.6095 83.1527 65.237 84.0937 64.865 85.07L239.417 131.841C239.578 130.828 239.726 129.827 239.86 128.838L65.9826 82.2472Z" fill="#DDDDDD"/>
<path d="M64.1638 87.0691C63.8334 88.0214 63.517 88.9774 63.225 89.9549L238.395 136.892C238.659 135.906 238.835 134.913 239.025 133.923L64.1638 87.0691Z" fill="#DDDDDD"/>
<path d="M59.3685 110.189L231.589 156.336C232.028 155.428 232.471 154.505 232.89 153.562L59.6576 107.144C59.5481 108.171 59.4704 109.191 59.3685 110.189Z" fill="#DDDDDD"/>
<path d="M59.9526 104.976L233.718 151.536C234.105 150.599 234.505 149.666 234.854 148.703L60.3859 101.955C60.1911 103.019 60.0714 104.027 59.9526 104.976Z" fill="#DDDDDD"/>
<g opacity="0.2">
<path d="M240.24 121.413C240.441 120.491 240.59 119.559 240.687 118.621C240.709 118.557 240.726 118.491 240.739 118.424L70.4842 72.8045C70.0878 73.4977 69.7194 74.1984 69.3613 74.917C69.8767 75.2964 70.3743 75.6861 70.9113 76.0412L240.24 121.413Z" fill="#DDDDDD"/>
<path d="M73.1634 68.1978C72.6083 69.0899 72.0954 69.9932 71.5646 70.9068L240.696 116.226C240.694 115.169 240.701 114.13 240.652 113.076L73.1634 68.1978Z" fill="#DDDDDD"/>
<path d="M76.2178 63.707C75.5963 64.5662 74.9991 65.4469 74.3981 66.3417L240.511 110.852C240.452 109.78 240.375 108.719 240.267 107.664L76.2178 63.707Z" fill="#DDDDDD"/>
<path d="M223.799 63.8082C222.849 62.4676 221.856 61.1758 220.831 59.8906L116.922 32.0484C115.392 32.6489 113.886 33.271 112.393 33.9569L223.799 63.8082Z" fill="#DDDDDD"/>
<path d="M85.0155 53.2283L237.887 94.1901C237.603 93.0583 237.306 91.9227 236.972 90.8077L87.4847 50.7526C86.6526 51.5553 85.8271 52.3899 85.0155 53.2283Z" fill="#DDDDDD"/>
<path d="M210.127 184.704L63.7991 145.495C64.1773 146.667 64.6052 147.823 65.0368 148.964L207.321 187.089C208.265 186.316 209.242 185.537 210.127 184.704Z" fill="#DDDDDD"/>
<path d="M79.599 59.2885C78.9214 60.1326 78.2399 60.9907 77.5687 61.8667L240.017 105.395C239.873 104.3 239.712 103.216 239.548 102.147L79.599 59.2885Z" fill="#DDDDDD"/>
<path d="M62.0935 139.729C62.3912 140.864 62.6927 141.986 63.04 143.105L211.98 183.013C212.84 182.218 213.662 181.397 214.488 180.563L62.0935 139.729Z" fill="#DDDDDD"/>
<path d="M83.3452 54.9679C82.5795 55.8035 81.8176 56.625 81.0762 57.4822L239.171 99.8437C238.958 98.7306 238.709 97.6382 238.463 96.5317L83.3452 54.9679Z" fill="#DDDDDD"/>
<path d="M81.9607 177.074C83.23 178.515 84.5603 179.898 85.9262 181.259L173.083 204.613C174.946 204.116 176.79 203.585 178.609 202.971L81.9607 177.074Z" fill="#DDDDDD"/>
<path d="M218.545 57.0758C217.304 55.6422 216.015 54.2713 214.692 52.9211L125.738 29.086C123.916 29.5934 122.115 30.1365 120.323 30.7575L218.545 57.0758Z" fill="#DDDDDD"/>
<path d="M76.5378 170.297C77.516 171.645 78.5196 172.954 79.5766 174.233L182.081 201.699C183.621 201.116 185.159 200.488 186.681 199.809L76.5378 170.297Z" fill="#DDDDDD"/>
<path d="M99.5504 192.421C102.75 194.56 106.083 196.491 109.529 198.202L144.058 207.454C147.92 207.692 151.793 207.682 155.654 207.424L99.5504 192.421Z" fill="#DDDDDD"/>
<path d="M89.1669 184.329C90.938 185.92 92.7522 187.462 94.649 188.921L161.754 206.901C164.126 206.587 166.468 206.158 168.797 205.666L89.1669 184.329Z" fill="#DDDDDD"/>
<path d="M211.577 49.8845C209.891 48.3163 208.133 46.8047 206.306 45.3497L136.786 26.7218C134.465 27.1057 132.188 27.5362 129.953 28.0133L211.577 49.8845Z" fill="#DDDDDD"/>
<path d="M201.693 41.8965C198.729 39.8475 195.648 37.9744 192.465 36.2867L153.303 25.7932C149.703 25.6635 146.098 25.7452 142.507 26.0378L201.693 41.8965Z" fill="#DDDDDD"/>
<path d="M60.7849 134.054C60.9983 135.167 61.2436 136.273 61.4927 137.365L216.19 178.816C216.952 177.995 217.717 177.159 218.459 176.302L60.7849 134.054Z" fill="#DDDDDD"/>
<path d="M234.076 82.5201C233.596 81.3355 233.098 80.1614 232.568 78.9937L97.2203 42.7274C96.1775 43.4737 95.1591 44.2416 94.1509 45.0273L234.076 82.5201Z" fill="#DDDDDD"/>
<path d="M231.363 76.4688C230.757 75.2504 230.118 74.0385 229.462 72.837L102.988 38.9486C101.819 39.661 100.66 40.3913 99.526 41.1431L231.363 76.4688Z" fill="#DDDDDD"/>
<path d="M236.213 88.4172C235.819 87.3059 235.419 86.158 235.014 84.9736L92.1119 46.6831C91.1865 47.4407 90.2663 48.2349 89.3514 49.0657L236.213 88.4172Z" fill="#DDDDDD"/>
<path d="M193.628 196.347L72.2663 163.828C73.0377 165.105 73.8306 166.359 74.6694 167.609L189.657 198.42C191.008 197.756 192.322 197.067 193.628 196.347Z" fill="#DDDDDD"/>
<path d="M227.986 70.2546C227.243 68.9845 226.464 67.7351 225.654 66.4922L109.515 35.373C108.191 36.044 106.892 36.7366 105.599 37.4611L227.986 70.2546Z" fill="#DDDDDD"/>
<path d="M59.1577 117.659C59.1643 118.702 59.1812 119.762 59.2196 120.798L226.442 165.605C226.993 164.727 227.538 163.817 228.065 162.918L59.1577 117.659Z" fill="#DDDDDD"/>
<path d="M59.1466 115.454L229.177 161.014C229.672 160.121 230.147 159.192 230.618 158.278L59.3093 112.376C59.2176 113.392 59.1643 114.433 59.1466 115.454Z" fill="#DDDDDD"/>
<path d="M59.3749 123.027C59.4339 124.099 59.5247 125.164 59.6437 126.236L223.355 170.103C223.995 169.233 224.592 168.353 225.193 167.458L59.3749 123.027Z" fill="#DDDDDD"/>
<path d="M59.8973 128.491C60.0406 129.586 60.2157 130.673 60.3946 131.747L219.95 174.5C220.642 173.659 221.337 172.805 222.008 171.929L59.8973 128.491Z" fill="#DDDDDD"/>
<path d="M199.8 192.691L68.8055 157.591C69.4261 158.813 70.0787 160.029 70.749 161.234L196.211 194.851C197.422 194.15 198.599 193.41 199.8 192.691Z" fill="#DDDDDD"/>
<path d="M205.272 188.727L65.9926 151.407C66.4868 152.596 66.9952 153.788 67.5289 154.941L202.174 191.019C203.213 190.287 204.25 189.509 205.272 188.727Z" fill="#DDDDDD"/>
</g>
<path d="M174.078 55.7646L170.909 37.9919L159.545 51.8705L143.106 49.6379L151.351 64.1399L144.691 79.279L160.784 75.7779L173.111 86.8942L174.913 70.4533L189.57 62.0879L174.078 55.7646Z" fill="#FFCB05"/>
<path d="M124.829 57.0786L123.025 47.0173L116.6 54.8738L107.308 53.6058L111.973 61.8091L108.202 70.3767L117.297 68.3942L124.266 74.681L125.299 65.3797L133.58 60.6453L124.829 57.0786Z" fill="#FFCB05"/>
<path d="M209.823 79.8527L208.033 69.7952L201.609 77.6517L192.317 76.3837L196.967 84.5832L193.211 93.1546L202.305 91.1721L209.274 97.4589L210.293 88.1538L218.589 83.4232L209.823 79.8527Z" fill="#FFCB05"/>
<path d="M144.744 165.238L141.575 147.466L130.211 161.344L113.777 159.098L122.017 173.614L115.357 188.753L131.451 185.252L143.778 196.368L145.579 179.927L160.241 171.548L144.744 165.238Z" fill="#FFCB05"/>
<path d="M100.963 146.147L99.1554 136.099L92.7347 143.942L83.4389 142.688L88.1035 150.891L84.3367 159.445L93.4313 157.462L100.4 163.749L101.429 154.462L109.711 149.727L100.963 146.147Z" fill="#FFCB05"/>
<path d="M185.957 168.921L184.164 158.877L177.743 166.72L168.447 165.466L173.098 173.665L169.345 182.223L178.44 180.24L185.409 186.527L186.423 177.236L194.719 172.505L185.957 168.921Z" fill="#FFCB05"/>
<path d="M244.683 170.659C232.906 191.461 214.64 207.82 192.693 217.22C170.746 226.62 146.333 228.54 123.207 222.687C100.082 216.833 79.5237 203.529 64.6939 184.82C49.864 166.11 41.5832 143.032 41.1246 119.132" stroke="#FFCB05" stroke-width="0.96" stroke-linecap="round" stroke-linejoin="round"/>
<path d="M55.9096 62.157C68.0122 41.3715 86.6269 25.1682 108.858 16.0677C131.09 6.96713 155.691 5.47948 178.837 11.8361C201.982 18.1927 222.374 32.0373 236.839 51.2162C251.305 70.3952 259.033 93.8334 258.823 117.885" stroke="#FFCB05" stroke-width="0.96" stroke-linecap="round" stroke-linejoin="round"/>
<path d="M225.63 166.836C215.09 182.859 199.759 195.132 181.836 201.892C163.913 208.653 144.319 209.555 125.867 204.468C107.414 199.381 91.0499 188.567 79.1221 173.578C67.1942 158.588 60.3156 140.193 59.4731 121.032" stroke="#FFCB05" stroke-width="0.96" stroke-linecap="round" stroke-linejoin="round"/>
<path d="M73.6137 68.2583C83.9762 51.9942 99.2353 39.4534 117.179 32.4537C135.123 25.4539 154.819 24.359 173.412 29.3276C192.005 34.2962 208.53 45.0702 220.59 60.0877C232.65 75.1052 239.619 93.586 240.487 112.851" stroke="#FFCB05" stroke-width="0.96" stroke-linecap="round" stroke-linejoin="round"/>
<path d="M250.44 172.201C238.069 194.753 218.51 212.504 194.892 222.613C171.275 232.723 144.965 234.606 120.172 227.963C95.3783 221.32 73.5348 206.533 58.1364 185.97C42.7381 165.406 34.6749 140.254 35.2371 114.538" stroke="#3D404C" stroke-width="2.87" stroke-linecap="round" stroke-linejoin="round"/>
<path d="M49.4341 61.7794C61.8052 39.2276 81.3641 21.4769 104.981 11.3675C128.598 1.25809 154.909 -0.625647 179.702 6.01772C204.495 12.6611 226.339 27.4476 241.737 48.0111C257.136 68.5747 265.199 93.7267 264.636 119.443" stroke="#3D404C" stroke-width="2.87" stroke-linecap="round" stroke-linejoin="round"/>
<path d="M246.635 85.5234L245.986 81.8803L243.659 84.7258L240.288 84.2751L241.975 87.2461L240.616 90.3512L243.909 89.6345L246.429 91.9088L246.805 88.5404L249.808 86.826L246.635 85.5234Z" fill="#FFCB05"/>
<path d="M218.196 191.662L217.546 188.019L215.219 190.864L211.848 190.414L213.535 193.385L212.176 196.49L215.469 195.773L217.99 198.048L218.366 194.679L221.368 192.965L218.196 191.662Z" fill="#FFCB05"/>
<path d="M237.726 63.8444L237.076 60.2013L234.749 63.0468L231.382 62.582L233.065 65.5671L231.71 68.6581L235.002 67.9414L237.523 70.2158L237.895 66.8614L240.902 65.1329L237.726 63.8444Z" fill="#FFCB05"/>
<path d="M200.134 204.138L199.485 200.495L197.157 203.341L193.79 202.876L195.477 205.847L194.119 208.952L197.411 208.235L199.932 210.51L200.308 207.141L203.31 205.427L200.134 204.138Z" fill="#FFCB05"/>
<path d="M81.9689 41.4012L84.3527 38.5707L84.9458 42.1988L88.0903 43.4939L85.1437 45.2233L84.7679 48.5918L82.275 46.325L78.9546 47.0341L80.3134 43.929L78.5701 40.9429L81.9689 41.4012Z" fill="#FFCB05"/>
<path d="M53.5292 147.54L55.913 144.709L56.506 148.337L59.6505 149.633L56.7039 151.362L56.3281 154.73L53.8352 152.464L50.5148 153.173L51.8736 150.068L50.1303 147.082L53.5292 147.54Z" fill="#FFCB05"/>
<path d="M100.525 27.0815L102.908 24.2511L103.501 27.8791L106.65 29.1601L103.699 30.9036L103.327 34.258L100.834 31.9912L97.514 32.7004L98.869 29.6093L97.1294 26.6092L100.525 27.0815Z" fill="#FFCB05"/>
<path d="M62.933 167.375L65.3168 164.545L65.9098 168.173L69.0581 169.454L66.1115 171.183L65.7357 174.552L63.2428 172.285L59.9224 172.994L61.2812 169.889L59.5379 166.903L62.933 167.375Z" fill="#FFCB05"/>
<path d="M130.576 25.0129L128.086 12.6258L129.98 12.2433L132.135 23.017L134.52 22.54L134.845 24.1354L130.576 25.0129Z" fill="white"/>
<path d="M141.889 22.4481C141.652 22.767 141.352 23.0339 141.008 23.2324C140.664 23.4309 140.283 23.5569 139.888 23.6024C139.494 23.6479 139.095 23.6122 138.715 23.4973C138.335 23.3823 137.983 23.1907 137.68 22.9342C137.085 22.1701 136.74 21.2401 136.693 20.2715L136.034 14.5292C135.769 12.2257 136.574 10.9632 138.449 10.7417C138.837 10.6528 139.24 10.6601 139.625 10.763C140.009 10.866 140.362 11.0614 140.653 11.3324C141.214 12.0471 141.538 12.9195 141.58 13.8281L142.239 19.5703C142.434 20.5419 142.312 21.5512 141.889 22.4481ZM138.94 21.6579C139.005 21.7904 139.114 21.8969 139.247 21.96C139.38 22.0231 139.531 22.0392 139.675 22.0056C139.825 22.0073 139.972 21.9558 140.088 21.8601C140.205 21.7644 140.284 21.6307 140.312 21.4824C140.386 20.9804 140.381 20.4698 140.296 19.9698L139.621 14.1177C139.594 13.6757 139.486 13.2426 139.301 12.8404C139.236 12.7148 139.132 12.6138 139.005 12.5524C138.877 12.4911 138.733 12.4728 138.595 12.5002C138.451 12.5061 138.313 12.5571 138.2 12.646C138.087 12.7349 138.005 12.8571 137.965 12.9953C137.853 13.4243 137.835 13.8727 137.914 14.309L138.589 20.161C138.637 20.6531 138.762 21.1344 138.959 21.5876L138.94 21.6579Z" fill="white"/>
<path d="M146.346 22.8882L144.671 10.2671L146.393 10.2457L147.415 19.2377L148.491 10.2198L150.005 10.1879L151.284 19.1736L151.998 10.1639L153.733 10.1462L152.421 22.7964L150.502 22.8252L149.29 14.4308L148.223 22.8481L146.346 22.8882Z" fill="white"/>
<path d="M156.321 23.0118L157.421 10.4253L161.626 10.7978L161.484 12.4492L159.192 12.2422L158.871 15.9119L161.047 16.1029L160.917 17.7121L158.723 17.5315L158.371 21.5399L160.755 21.7413L160.614 23.3927L156.321 23.0118Z" fill="white"/>
<path d="M163.642 20.1771L163.834 19.0671L165.621 19.3648L165.423 20.6089C165.307 21.0971 165.284 21.6025 165.355 22.099C165.383 22.2406 165.456 22.3693 165.563 22.4659C165.67 22.5626 165.805 22.6219 165.949 22.6352C166.075 22.6721 166.209 22.6692 166.333 22.627C166.458 22.5848 166.566 22.5052 166.644 22.3992C166.816 22.0468 166.918 21.6645 166.946 21.2733C167.032 20.8023 167.013 20.3178 166.889 19.8554C166.729 19.3658 166.492 18.905 166.186 18.4906L165.43 17.3828C165.098 16.9057 164.843 16.3793 164.674 15.8228C164.51 15.1446 164.504 14.4375 164.658 13.7565C164.812 13.0756 165.12 12.4393 165.56 11.8973C165.866 11.6652 166.221 11.5071 166.598 11.4354C166.975 11.3636 167.363 11.3803 167.733 11.4839C168.115 11.5004 168.486 11.6203 168.806 11.8308C169.125 12.0413 169.382 12.3346 169.549 12.6796C169.804 13.54 169.834 14.4517 169.637 15.3277L169.508 16.0924L167.763 15.806L167.913 14.9109C168.007 14.4747 168.026 14.0255 167.968 13.5832C167.945 13.4546 167.88 13.3371 167.785 13.2488C167.689 13.1604 167.566 13.106 167.437 13.094C167.316 13.0635 167.189 13.0653 167.069 13.0993C166.949 13.1333 166.84 13.1983 166.753 13.2877C166.559 13.5354 166.442 13.8346 166.417 14.148C166.338 14.4707 166.352 14.8089 166.456 15.1239C166.601 15.4854 166.786 15.8287 167.01 16.1471L167.851 17.4435C168.242 18.0199 168.539 18.6544 168.732 19.3236C168.906 20.0849 168.911 20.8752 168.748 21.6391C168.585 22.4031 168.257 23.1223 167.788 23.7465C167.491 24.004 167.135 24.1842 166.752 24.2711C166.369 24.3579 165.971 24.3487 165.593 24.2443C165.194 24.2173 164.809 24.0851 164.478 23.8613C164.147 23.6375 163.881 23.3299 163.707 22.9697C163.436 22.0617 163.414 21.0972 163.642 20.1771Z" fill="white"/>
<path d="M171.742 25.3339L174.385 14.6842L172.981 14.308L173.411 12.7037L178.081 13.8646L177.651 15.4689L176.247 15.0927L173.604 25.7423L171.742 25.3339Z" fill="white"/>
<path d="M180.613 27.8919L185.037 16.0451L187.773 17.0649C188.148 17.1583 188.492 17.35 188.769 17.6202C189.045 17.8905 189.245 18.2297 189.348 18.603C189.446 19.5216 189.311 20.4506 188.955 21.3034L188.884 21.5707C188.593 22.5082 188.076 23.3593 187.377 24.048C187.069 24.2902 186.7 24.44 186.311 24.48C185.922 24.52 185.529 24.4484 185.18 24.2737L184.209 23.908L182.464 28.5687L180.613 27.8919ZM184.718 22.4004L185.35 22.5697C185.498 22.6426 185.666 22.6658 185.828 22.636C185.991 22.6062 186.139 22.5249 186.252 22.4042C186.61 21.912 186.879 21.3617 187.049 20.7776L187.11 20.5524C187.341 20.0606 187.482 19.5317 187.528 18.9903C187.529 18.827 187.476 18.6681 187.378 18.5381C187.279 18.4081 187.141 18.3143 186.984 18.2712L186.361 18.1798L184.718 22.4004Z" fill="white"/>
<path d="M192.882 26.5336L192.33 26.2348L189.768 31.5818L188.033 30.755L193.496 19.3527L196.351 20.7208C196.843 20.9092 197.253 21.2648 197.511 21.7255C197.699 22.1257 197.737 22.5801 197.619 23.0065C197.447 23.6092 197.22 24.1946 196.94 24.7552C196.714 25.3041 196.386 25.8048 195.973 26.2306C195.814 26.371 195.626 26.475 195.423 26.5352C195.219 26.5953 195.005 26.6102 194.796 26.5789C194.979 26.711 195.12 26.8945 195.2 27.1064C195.279 27.3183 195.295 27.5491 195.244 27.77C194.987 28.8124 194.602 29.8187 194.095 30.7654C193.685 31.5339 193.33 32.3311 193.035 33.151L191.3 32.3241C191.33 32.2115 191.925 30.8325 193.188 28.1994C193.378 27.8647 193.479 27.4867 193.482 27.1017C193.427 26.9701 193.345 26.8516 193.242 26.7538C193.139 26.6559 193.016 26.5809 192.882 26.5336ZM192.987 24.9027L193.684 25.2251C193.836 25.3398 194.028 25.391 194.217 25.368C194.411 25.2858 194.575 25.1452 194.686 24.9658C194.906 24.6193 195.103 24.2589 195.276 23.887C195.484 23.4804 195.604 23.0343 195.627 22.5783C195.687 22.3531 195.43 22.1333 195.06 21.9436L194.458 21.6617L192.987 24.9027Z" fill="white"/>
<path d="M195.514 34.5695L201.781 23.5937L203.454 24.5397L197.187 35.5155L195.514 34.5695Z" fill="white"/>
<path d="M204.035 39.0547C203.652 39.1366 203.257 39.1379 202.874 39.0586C202.491 38.9792 202.129 38.821 201.81 38.5938C201.492 38.3666 201.224 38.0755 201.024 37.739C200.824 37.4025 200.696 37.0279 200.649 36.639C200.667 35.6905 200.987 34.7723 201.562 34.0178L204.625 29.4387C205.678 27.8658 206.738 27.1692 207.822 27.2788C208.271 27.3585 208.696 27.5394 209.065 27.8079C210.533 28.7894 210.645 30.2224 209.424 32.0823L208.451 33.5259L206.906 32.4936L207.789 31.2218C208.073 30.8472 208.289 30.4247 208.424 29.9742C208.459 29.8399 208.45 29.698 208.397 29.5697C208.345 29.4414 208.252 29.3337 208.133 29.2627C208.016 29.1771 207.874 29.1305 207.729 29.1294C207.583 29.1283 207.441 29.1728 207.322 29.2565C206.964 29.5499 206.656 29.9007 206.412 30.2947L203.128 35.1918C202.833 35.5938 202.61 36.0447 202.47 36.5238C202.435 36.6618 202.445 36.8076 202.499 36.9392C202.553 37.0708 202.649 37.181 202.772 37.2531C202.886 37.3388 203.025 37.3837 203.167 37.3809C203.31 37.3781 203.447 37.3277 203.558 37.2377C203.941 36.9245 204.266 36.5472 204.519 36.1226L205.526 34.6125L207.095 35.6663L206.096 37.1483C205.621 37.9813 204.901 38.6472 204.035 39.0547Z" fill="white"/>
<path d="M206.296 41.6216L214.157 31.6612L217.469 34.2982L216.46 35.5363L214.652 34.0863L212.373 36.9749L214.084 38.3386L213.089 39.5803L211.364 38.2129L208.865 41.3596L210.736 42.8565L209.727 44.0945L206.296 41.6216Z" fill="white"/>
<path d="M78.9358 196.732L87.2616 187.228L88.7101 188.506L81.4823 196.72L83.2956 198.322L82.2304 199.545L78.9358 196.732Z" fill="white"/>
<path d="M89.1784 204.001C88.7857 204.096 88.376 204.09 87.9862 203.986C87.5963 203.881 87.2387 203.681 86.9457 203.403C86.6059 203.187 86.3228 202.893 86.1202 202.545C85.9176 202.197 85.8013 201.805 85.7813 201.402C85.8719 200.438 86.2531 199.525 86.8742 198.784L90.3195 194.126C91.692 192.261 93.1519 191.868 94.6624 193.027C95.0023 193.231 95.2863 193.517 95.489 193.858C95.6918 194.199 95.8069 194.585 95.824 194.982C95.7489 195.893 95.391 196.757 94.8007 197.453L91.3592 202.097C90.8507 202.946 90.0874 203.613 89.1784 204.001ZM87.6086 201.379C87.5586 201.521 87.5602 201.676 87.6132 201.817C87.6662 201.959 87.7673 202.076 87.8986 202.15C88.0101 202.249 88.1519 202.306 88.3005 202.313C88.4491 202.32 88.5957 202.276 88.7161 202.188C89.1262 201.871 89.4788 201.486 89.7586 201.05L93.2686 196.319C93.5473 195.974 93.7642 195.583 93.9094 195.163C93.948 195.027 93.9408 194.883 93.8889 194.751C93.8369 194.62 93.7432 194.51 93.6222 194.438C93.5138 194.345 93.3798 194.289 93.2382 194.275C93.0966 194.261 92.9541 194.291 92.83 194.361C92.4521 194.596 92.1311 194.912 91.89 195.286L88.3929 200.08C88.0619 200.467 87.7969 200.906 87.6086 201.379Z" fill="white"/>
<path d="M93.4115 207.805L98.4949 196.135L99.9788 197.001L96.2631 205.251L101.854 198.091L103.149 198.876L99.6003 207.231L104.877 199.897L106.36 200.762L98.6863 210.923L97.0387 209.939L100.348 202.137L95.0908 208.783L93.4115 207.805Z" fill="white"/>
<path d="M103.241 213.245L108.568 201.791L112.395 203.57L111.706 205.075L109.603 204.104L108.05 207.429L110.041 208.37L109.363 209.832L107.369 208.906L105.683 212.557L107.863 213.578L107.159 215.079L103.241 213.245Z" fill="white"/>
<path d="M111.564 213.077L111.967 212.023L113.662 212.658L113.222 213.853C113.021 214.298 112.894 214.774 112.845 215.26C112.857 215.395 112.904 215.524 112.983 215.634C113.062 215.745 113.168 215.832 113.292 215.886C113.416 215.941 113.552 215.961 113.686 215.945C113.821 215.93 113.948 215.878 114.056 215.796C114.305 215.497 114.494 215.154 114.613 214.783C114.801 214.325 114.877 213.828 114.836 213.335C114.781 212.82 114.64 212.319 114.421 211.851L113.878 210.619C113.641 210.102 113.485 209.551 113.412 208.986C113.365 208.404 113.449 207.818 113.661 207.273C113.892 206.482 114.379 205.79 115.045 205.306C115.387 205.138 115.763 205.05 116.144 205.05C116.525 205.05 116.901 205.138 117.243 205.307C117.617 205.398 117.959 205.588 118.234 205.858C118.508 206.129 118.705 206.468 118.803 206.841C118.891 207.73 118.749 208.627 118.391 209.446L118.187 210.206L116.52 209.578L116.838 208.728C117.02 208.322 117.136 207.89 117.181 207.447C117.181 207.317 117.139 207.19 117.061 207.085C116.984 206.98 116.875 206.902 116.75 206.864C116.636 206.812 116.511 206.79 116.386 206.802C116.262 206.813 116.142 206.858 116.04 206.93C115.804 207.135 115.628 207.401 115.533 207.699C115.405 208.007 115.357 208.342 115.393 208.672C115.472 209.059 115.593 209.435 115.754 209.795L116.326 211.2C116.609 211.84 116.782 212.524 116.837 213.223C116.881 213.879 116.782 214.537 116.546 215.151C116.287 216.028 115.774 216.809 115.072 217.395C114.733 217.593 114.35 217.703 113.958 217.714C113.566 217.724 113.177 217.636 112.828 217.458C112.44 217.363 112.085 217.163 111.802 216.88C111.52 216.597 111.321 216.241 111.227 215.852C111.089 214.914 111.206 213.955 111.564 213.077Z" fill="white"/>
<path d="M119.625 219.611L122.647 209.063L121.243 208.687L121.673 207.082L126.321 208.328L125.887 209.946L124.483 209.57L121.461 220.118L119.625 219.611Z" fill="white"/>
<path d="M129.978 222.144L132.043 209.665L134.923 210.15C135.311 210.166 135.688 210.287 136.012 210.502C136.337 210.716 136.597 211.015 136.764 211.367C137.031 212.248 137.071 213.182 136.879 214.083L136.811 214.336C136.712 215.321 136.371 216.266 135.818 217.087C135.56 217.38 135.226 217.595 134.852 217.708C134.479 217.822 134.082 217.828 133.705 217.727L132.668 217.555L131.863 222.468L129.978 222.144ZM132.956 215.973L133.588 216.142C133.749 216.186 133.92 216.176 134.075 216.114C134.229 216.052 134.36 215.942 134.447 215.799C134.685 215.248 134.841 214.665 134.911 214.068L134.975 213.829C135.084 213.299 135.108 212.756 135.046 212.219C135.011 212.059 134.926 211.914 134.804 211.805C134.682 211.696 134.528 211.629 134.365 211.614L133.7 211.511L132.956 215.973Z" fill="white"/>
<path d="M141.926 217.713L141.314 217.639L140.873 223.554L138.953 223.417L139.922 210.871L143.078 211.113C143.578 211.117 144.062 211.289 144.452 211.602C144.77 211.91 144.969 212.322 145.013 212.763C145.079 213.385 145.082 214.013 145.023 214.636C145.008 215.229 144.882 215.815 144.651 216.361C144.559 216.553 144.423 216.721 144.255 216.852C144.087 216.982 143.891 217.071 143.682 217.112C143.902 217.168 144.099 217.289 144.25 217.458C144.4 217.627 144.496 217.838 144.526 218.063C144.667 219.125 144.672 220.201 144.541 221.264C144.446 222.13 144.403 223 144.415 223.87L142.495 223.733C142.518 223.648 142.552 222.119 142.775 219.207C142.838 218.826 142.798 218.434 142.657 218.075C142.568 217.966 142.457 217.877 142.331 217.815C142.205 217.752 142.067 217.718 141.926 217.713ZM141.447 216.076L142.215 216.131C142.406 216.162 142.601 216.117 142.76 216.006C142.914 215.862 143.017 215.673 143.055 215.466C143.136 215.062 143.19 214.654 143.217 214.243C143.28 213.788 143.256 213.326 143.146 212.881C143.059 212.758 142.942 212.66 142.807 212.595C142.672 212.529 142.523 212.5 142.373 212.508L141.721 212.469L141.447 216.076Z" fill="white"/>
<path d="M148.205 223.935L148.248 211.307L150.173 211.31L150.131 223.938L148.205 223.935Z" fill="white"/>
<path d="M158.622 222.805C158.395 223.116 158.097 223.368 157.753 223.538C157.408 223.709 157.028 223.793 156.644 223.783C156.25 223.836 155.849 223.792 155.476 223.652C155.104 223.513 154.772 223.284 154.51 222.985C153.94 222.226 153.633 221.302 153.635 220.352L153.258 214.851C153.128 212.977 153.544 211.761 154.499 211.232C154.899 211.02 155.343 210.901 155.795 210.886C157.561 210.755 158.555 211.821 158.678 214.056L158.786 215.79L156.946 215.915L156.818 214.372C156.801 213.901 156.713 213.435 156.556 212.99C156.5 212.86 156.403 212.753 156.28 212.685C156.156 212.616 156.014 212.59 155.875 212.611C155.731 212.617 155.593 212.668 155.48 212.757C155.367 212.846 155.285 212.968 155.245 213.106C155.129 213.555 155.096 214.022 155.147 214.483L155.543 220.366C155.556 220.862 155.654 221.352 155.831 221.816C155.887 221.946 155.983 222.054 156.105 222.125C156.227 222.196 156.369 222.225 156.509 222.208C156.652 222.204 156.789 222.153 156.9 222.063C157.011 221.973 157.09 221.849 157.124 221.71C157.236 221.222 157.264 220.72 157.206 220.223L157.09 218.412L158.975 218.284L159.085 220.063C159.215 221.003 159.053 221.96 158.622 222.805Z" fill="white"/>
<path d="M163.056 223.103L161.159 210.528L165.345 209.9L165.614 211.48L163.326 211.818L163.856 215.459L166.023 215.12L166.278 216.696L164.1 217.018L164.705 220.996L167.074 220.635L167.329 222.212L163.056 223.103Z" fill="white"/>
<path d="M37.8529 64.174L273.539 127.326L258.293 145.747L262.41 168.861L26.7237 105.709L41.9136 87.4979L37.8529 64.174Z" fill="#3D404C"/>
<path d="M73.0994 113.763C72.181 113.559 71.329 113.126 70.6223 112.504C69.9156 111.882 69.3769 111.092 69.056 110.206C68.3523 107.679 68.4308 104.996 69.2811 102.513L72.8913 88.7591C73.3551 86.3631 74.5735 84.1784 76.3674 82.5259C77.228 81.897 78.2284 81.4877 79.282 81.3337C80.3356 81.1797 81.4105 81.2856 82.4135 81.6421C85.5167 82.4736 87.1771 84.1403 87.4152 86.6778C87.4913 88.6501 87.2426 90.6219 86.6792 92.5139L86.0796 94.7515L81.6003 93.5513L82.4864 90.2442C82.8253 89.2198 82.9415 88.1349 82.8273 87.0624C82.7338 86.7196 82.5423 86.4119 82.2762 86.1772C82.0102 85.9424 81.6814 85.7908 81.3302 85.7411C80.9701 85.6158 80.5802 85.6044 80.2132 85.7084C79.8462 85.8123 79.5198 86.0267 79.2781 86.3225C78.5296 87.4013 78.0169 88.626 77.7734 89.9165L74.1006 103.624C73.6401 105.062 73.415 106.566 73.4343 108.076C73.4578 108.487 73.6186 108.878 73.8909 109.186C74.1632 109.494 74.5311 109.702 74.9355 109.775C75.3496 109.9 75.793 109.889 76.2006 109.743C76.6081 109.597 76.9583 109.324 77.1996 108.964C78.0265 107.655 78.6086 106.206 78.9173 104.688L80.0485 100.466L77.6193 99.8152L78.5394 96.3813L85.153 98.1534L80.6104 115.444L78.4621 114.868L78.5879 111.478C78.096 112.432 77.271 113.172 76.27 113.557C75.263 113.968 74.1503 114.04 73.0994 113.763Z" fill="white"/>
<path d="M96.6054 117.814C94.8016 118.751 92.7142 118.979 90.7528 118.453C88.7914 117.928 87.0976 116.687 86.0039 114.973C85.2521 112.749 85.2629 110.337 86.0347 108.118L92.2094 84.5686L97.0117 85.8554L90.8596 109.321C90.5243 110.319 90.3317 111.359 90.2875 112.41C90.3431 112.802 90.4478 113.185 90.5993 113.55C90.7388 113.773 90.9278 113.962 91.1517 114.1C91.3756 114.238 91.6283 114.323 91.8903 114.348C92.1526 114.434 92.4313 114.457 92.7041 114.414C92.9768 114.372 93.2359 114.266 93.4604 114.105C93.8918 113.738 94.2208 113.265 94.4153 112.732C94.6323 112.147 94.8678 111.38 95.1217 110.433L101.27 86.9814L106.072 88.2681L99.8975 111.818C99.4929 114.126 98.335 116.235 96.6054 117.814Z" fill="white"/>
<path d="M100.012 120.491L112.827 90.0177L119.16 91.7146L115.705 124.606L111.225 123.405L111.947 117.566L106.85 116.2L104.696 121.656L100.012 120.491ZM112.401 113.569L114.46 97.1222L114.376 97.0996L108.265 112.491L112.401 113.569Z" fill="white"/>
<path d="M128.643 112.099L127.098 111.685L123.171 126.621L118.369 125.335L126.684 93.6852L134.617 95.811C135.951 96.0597 137.161 96.7561 138.046 97.7857C138.709 98.7327 139.019 99.8834 138.921 101.037C138.796 102.654 138.513 104.256 138.076 105.818C137.74 107.322 137.142 108.755 136.31 110.051C135.985 110.489 135.565 110.847 135.08 111.096C134.596 111.346 134.061 111.48 133.517 111.489C134.04 111.744 134.479 112.144 134.78 112.642C135.082 113.14 135.234 113.715 135.217 114.298C135.085 117.075 134.597 119.824 133.763 122.476C133.106 124.635 132.592 126.835 132.224 129.062L127.422 127.775C127.354 127.506 128.28 123.732 130.2 116.453C130.545 115.508 130.626 114.487 130.435 113.499C130.261 113.145 130.01 112.835 129.7 112.593C129.389 112.35 129.028 112.181 128.643 112.099ZM128.116 107.885L130.026 108.397C130.268 108.494 130.528 108.54 130.789 108.532C131.05 108.524 131.307 108.463 131.543 108.351C131.997 108.055 132.342 107.617 132.524 107.106C132.93 106.125 133.257 105.113 133.5 104.079L133.553 103.882C133.949 102.766 134.103 101.578 134.005 100.398C133.864 99.8023 133.276 99.3581 132.233 99.0938L130.59 98.6536L128.116 107.885Z" fill="white"/>
<path d="M134.731 129.538L147.542 99.0784L153.889 100.779L150.359 133.725L145.88 132.525L146.616 126.689L141.519 125.323L139.364 130.779L134.731 129.538ZM147.116 122.63L149.213 106.268L149.143 106.249L143.032 121.641L147.116 122.63Z" fill="white"/>
<path d="M153.083 134.455L161.384 102.802L165.161 103.814L166.882 124.578L168.814 115.849L171.586 105.506L175.91 106.664L167.592 138.328L164.194 137.417L162.426 115.932L160.51 124.318L157.474 135.647L153.083 134.455Z" fill="white"/>
<path d="M173.636 139.812L180.848 112.332L177.155 111.342L178.287 107.12L190.306 110.341L189.175 114.563L185.622 113.611L178.41 141.091L173.636 139.812Z" fill="white"/>
<path d="M184.389 142.648L192.693 110.98L203.267 113.813L202.158 117.951L196.387 116.405L193.921 125.608L199.411 127.079L198.325 131.132L192.849 129.665L190.153 139.727L196.149 141.334L195.017 145.556L184.389 142.648Z" fill="white"/>
<path d="M198.168 146.264L206.487 114.601L217.06 117.434L215.952 121.572L210.181 120.025L207.715 129.229L213.205 130.7L212.119 134.753L206.643 133.286L203.946 143.348L209.942 144.954L208.83 149.106L198.168 146.264Z" fill="white"/>
<path d="M211.948 149.881L220.267 118.218L227.288 120.099C228.255 120.261 229.169 120.652 229.954 121.241C230.738 121.829 231.371 122.597 231.8 123.48C232.496 125.584 232.489 127.859 231.779 129.96L228.04 144.253C227.587 146.755 226.392 149.063 224.609 150.876C223.791 151.492 222.831 151.894 221.818 152.044C220.805 152.194 219.772 152.088 218.811 151.735L211.948 149.881ZM217.747 147.393L219.348 147.822C219.708 147.948 220.095 147.981 220.472 147.919C220.848 147.856 221.204 147.7 221.505 147.464C222.249 146.611 222.746 145.571 222.943 144.456L227.027 128.823C227.426 127.643 227.536 126.384 227.348 125.153C227.224 124.747 226.99 124.384 226.671 124.104C226.353 123.824 225.963 123.639 225.545 123.569L224.141 123.193L217.747 147.393Z" fill="white"/>
</g>
<defs>
<clipPath id="clip0_35:509">
<rect width="300" height="234" fill="white"/>
</clipPath>
</defs>
</svg>
