<svg width="248" height="193" viewBox="0 0 248 193" fill="none" xmlns="http://www.w3.org/2000/svg">
<g clip-path="url(#clip0_108:1680)">
<path d="M51.4669 76.8911C51.3454 77.3438 51.2207 77.8081 51.0991 78.2608L196.01 117.001C196.132 116.549 196.257 116.084 196.378 115.632C196.5 115.179 196.562 114.947 196.656 114.599L51.7676 75.8643C51.674 76.2125 51.5605 76.5429 51.4669 76.8911Z" fill="#DDDDDD"/>
<path d="M138.935 22.7575L147.792 25.1253C146.354 24.6414 144.896 24.1893 143.398 23.7889C141.901 23.3886 140.423 23.0557 138.935 22.7575Z" fill="#DDDDDD"/>
<path d="M50.76 79.9864C50.5449 80.7873 50.4111 81.6099 50.2656 82.4294L194.713 121.046C194.997 120.264 195.259 119.475 195.509 118.684L50.76 79.9864Z" fill="#DDDDDD"/>
<path d="M56.3192 63.919C55.9532 64.6796 55.5904 65.4285 55.2561 66.21L198.519 104.51C198.621 103.666 198.682 102.837 198.747 101.996L56.3192 63.919Z" fill="#DDDDDD"/>
<path d="M54.5457 67.8363C54.2372 68.5833 53.9293 69.3593 53.6218 70.1646L197.918 108.741C198.051 107.905 198.173 107.08 198.285 106.263L54.5457 67.8363Z" fill="#DDDDDD"/>
<path d="M53.042 71.8134C52.7688 72.5988 52.5073 73.3873 52.2659 74.1936L197.073 112.906C197.291 112.094 197.436 111.274 197.594 110.458L53.042 71.8134Z" fill="#DDDDDD"/>
<path d="M49.0779 90.8825L191.447 128.943C191.81 128.195 192.176 127.434 192.522 126.656L49.3169 88.3712C49.2264 89.2179 49.1622 90.0591 49.0779 90.8825Z" fill="#DDDDDD"/>
<path d="M49.5608 86.5828L193.207 124.985C193.526 124.212 193.858 123.442 194.146 122.648L49.9189 84.0909C49.7579 84.9685 49.6589 85.8004 49.5608 86.5828Z" fill="#DDDDDD"/>
<g opacity="0.2">
<path d="M198.598 100.139C198.765 99.3795 198.888 98.6109 198.968 97.8372C198.986 97.7841 199.001 97.7298 199.011 97.6747L58.2671 60.0482C57.9394 60.6199 57.6349 61.1978 57.3389 61.7905C57.7649 62.1034 58.1763 62.4249 58.6202 62.7177L198.598 100.139Z" fill="#DDDDDD"/>
<path d="M60.4819 56.2487C60.023 56.9844 59.599 57.7294 59.1602 58.483L198.976 95.8612C198.973 94.9898 198.98 94.133 198.939 93.2638L60.4819 56.2487Z" fill="#DDDDDD"/>
<path d="M63.0069 52.5447C62.4931 53.2533 61.9995 53.9797 61.5027 54.7177L198.823 91.4288C198.774 90.5449 198.71 89.6696 198.621 88.7996L63.0069 52.5447Z" fill="#DDDDDD"/>
<path d="M185.007 52.6282C184.222 51.5225 183.401 50.457 182.553 49.3969L96.656 26.4331C95.3908 26.9284 94.1457 27.4415 92.9114 28.0072L185.007 52.6282Z" fill="#DDDDDD"/>
<path d="M70.2796 43.902L196.653 77.6867C196.419 76.7532 196.173 75.8166 195.897 74.8969L72.3209 41.8601C71.633 42.5221 70.9505 43.2105 70.2796 43.902Z" fill="#DDDDDD"/>
<path d="M173.705 152.341L52.7407 120.002C53.0534 120.969 53.4071 121.922 53.7639 122.864L171.385 154.308C172.166 153.671 172.973 153.029 173.705 152.341Z" fill="#DDDDDD"/>
<path d="M65.8019 48.9003C65.2417 49.5965 64.6784 50.3043 64.1235 51.0268L198.414 86.928C198.295 86.0255 198.162 85.1315 198.026 84.2491L65.8019 48.9003Z" fill="#DDDDDD"/>
<path d="M51.3308 115.246C51.5769 116.183 51.8261 117.108 52.1133 118.031L175.237 150.946C175.948 150.291 176.627 149.614 177.31 148.925L51.3308 115.246Z" fill="#DDDDDD"/>
<path d="M68.8989 45.3368C68.2659 46.026 67.6361 46.7035 67.0232 47.4105L197.715 82.3497C197.539 81.4317 197.333 80.5307 197.13 79.618L68.8989 45.3368Z" fill="#DDDDDD"/>
<path d="M67.7542 146.048C68.8034 147.237 69.9032 148.377 71.0323 149.5L143.082 168.762C144.622 168.352 146.146 167.914 147.65 167.408L67.7542 146.048Z" fill="#DDDDDD"/>
<path d="M180.664 47.0754C179.638 45.8929 178.573 44.7623 177.478 43.6486L103.943 23.9897C102.437 24.4082 100.948 24.8562 99.4673 25.3684L180.664 47.0754Z" fill="#DDDDDD"/>
<path d="M63.2712 140.458C64.0799 141.57 64.9095 142.65 65.7833 143.705L150.52 166.359C151.794 165.878 153.065 165.36 154.323 164.8L63.2712 140.458Z" fill="#DDDDDD"/>
<path d="M82.295 158.706C84.9399 160.47 87.6953 162.063 90.5444 163.474L119.088 171.105C122.28 171.301 125.482 171.293 128.674 171.08L82.295 158.706Z" fill="#DDDDDD"/>
<path d="M73.7114 152.032C75.1755 153.344 76.6752 154.616 78.2432 155.819L133.717 170.649C135.678 170.39 137.614 170.037 139.539 169.631L73.7114 152.032Z" fill="#DDDDDD"/>
<path d="M174.904 41.144C173.51 39.8507 172.057 38.6039 170.546 37.4039L113.076 22.0398C111.158 22.3564 109.275 22.7115 107.428 23.105L174.904 41.144Z" fill="#DDDDDD"/>
<path d="M166.733 34.5557C164.283 32.8657 161.736 31.3208 159.105 29.9288L126.731 21.2739C123.755 21.1669 120.775 21.2343 117.806 21.4756L166.733 34.5557Z" fill="#DDDDDD"/>
<path d="M50.2488 110.566C50.4252 111.484 50.628 112.396 50.8339 113.297L178.717 147.485C179.347 146.808 179.98 146.119 180.592 145.412L50.2488 110.566Z" fill="#DDDDDD"/>
<path d="M193.503 68.0614C193.106 67.0845 192.694 66.116 192.256 65.1529L80.3689 35.241C79.5069 35.8565 78.665 36.4898 77.8315 37.1379L193.503 68.0614Z" fill="#DDDDDD"/>
<path d="M191.26 63.0704C190.759 62.0655 190.231 61.066 189.688 60.075L85.1372 32.1243C84.1707 32.7119 83.2128 33.3142 82.2749 33.9343L191.26 63.0704Z" fill="#DDDDDD"/>
<path d="M195.269 72.9253C194.943 72.0087 194.613 71.062 194.278 70.085L76.1458 38.5036C75.3808 39.1285 74.6201 39.7835 73.8638 40.4687L195.269 72.9253Z" fill="#DDDDDD"/>
<path d="M160.066 161.944L59.7402 135.123C60.3779 136.177 61.0334 137.21 61.7268 138.242L156.783 163.654C157.9 163.107 158.986 162.538 160.066 161.944Z" fill="#DDDDDD"/>
<path d="M188.469 57.9451C187.854 56.8975 187.211 55.867 186.54 54.8419L90.5324 29.1751C89.4382 29.7286 88.3642 30.2998 87.2955 30.8974L188.469 57.9451Z" fill="#DDDDDD"/>
<path d="M48.9038 97.0439C48.9093 97.9038 48.9232 98.7783 48.955 99.6328L187.192 136.589C187.648 135.865 188.098 135.114 188.534 134.373L48.9038 97.0439Z" fill="#DDDDDD"/>
<path d="M48.8945 95.2251L189.453 132.802C189.862 132.065 190.255 131.299 190.644 130.545L49.0291 92.6859C48.9533 93.524 48.9092 94.3831 48.8945 95.2251Z" fill="#DDDDDD"/>
<path d="M49.0833 101.471C49.132 102.355 49.2071 103.233 49.3055 104.118L184.641 140.298C185.169 139.581 185.663 138.855 186.159 138.117L49.0833 101.471Z" fill="#DDDDDD"/>
<path d="M49.5151 105.978C49.6336 106.88 49.7783 107.778 49.9262 108.663L181.825 143.925C182.397 143.232 182.972 142.527 183.527 141.805L49.5151 105.978Z" fill="#DDDDDD"/>
<path d="M165.168 158.929L56.8794 129.979C57.3925 130.987 57.9319 131.989 58.486 132.984L162.201 160.711C163.203 160.133 164.175 159.522 165.168 158.929Z" fill="#DDDDDD"/>
<path d="M169.691 155.659L54.554 124.879C54.9626 125.859 55.3828 126.842 55.824 127.793L167.131 157.55C167.99 156.946 168.846 156.304 169.691 155.659Z" fill="#DDDDDD"/>
</g>
<path d="M143.904 45.9939L141.285 31.3352L131.89 42.7821L118.301 40.9407L125.117 52.9017L119.611 65.3882L132.915 62.5006L143.105 71.6691L144.595 58.1089L156.712 51.2092L143.904 45.9939Z" fill="#FFCB05"/>
<path d="M103.192 47.0776L101.701 38.7792L96.3897 45.2592L88.7082 44.2133L92.5643 50.9793L89.4473 58.0458L96.9655 56.4106L102.727 61.5958L103.58 53.9242L110.426 50.0194L103.192 47.0776Z" fill="#FFCB05"/>
<path d="M173.454 65.8614L171.974 57.5661L166.663 64.0461L158.982 63.0002L162.826 69.7631L159.721 76.8327L167.239 75.1975L173 80.3827L173.842 72.708L180.7 68.8063L173.454 65.8614Z" fill="#FFCB05"/>
<path d="M119.655 136.286L117.036 121.628L107.641 133.075L94.0555 131.222L100.868 143.194L95.362 155.681L108.666 152.793L118.856 161.962L120.346 148.401L132.466 141.49L119.655 136.286Z" fill="#FFCB05"/>
<path d="M83.4628 120.54L81.9684 112.253L76.6607 118.721L68.9761 117.687L72.8322 124.453L69.7183 131.508L77.2364 129.873L82.9976 135.058L83.8479 127.398L90.6942 123.493L83.4628 120.54Z" fill="#FFCB05"/>
<path d="M153.725 139.324L152.242 131.04L146.934 137.508L139.25 136.474L143.094 143.237L139.992 150.295L147.51 148.66L153.271 153.845L154.11 146.182L160.968 142.28L153.725 139.324Z" fill="#FFCB05"/>
<path d="M202.271 140.757C192.535 157.915 177.435 171.407 159.293 179.16C141.15 186.913 120.969 188.497 101.851 183.669C82.7343 178.841 65.7397 167.868 53.4803 152.437C41.221 137.006 34.3755 117.971 33.9964 98.2586" stroke="#FFCB05" stroke-width="0.96" stroke-linecap="round" stroke-linejoin="round"/>
<path d="M46.2187 51.2662C56.2235 34.1226 71.6116 20.7584 89.9895 13.2524C108.367 5.74639 128.705 4.5194 147.838 9.76225C166.972 15.0051 183.829 26.4239 195.787 42.2424C207.745 58.061 214.134 77.3925 213.961 97.23" stroke="#FFCB05" stroke-width="0.96" stroke-linecap="round" stroke-linejoin="round"/>
<path d="M186.521 137.604C177.808 150.82 165.134 160.942 150.317 166.518C135.501 172.094 119.304 172.838 104.05 168.642C88.7954 164.447 75.2678 155.528 65.4075 143.165C55.5471 130.802 49.8608 115.63 49.1643 99.8255" stroke="#FFCB05" stroke-width="0.96" stroke-linecap="round" stroke-linejoin="round"/>
<path d="M60.8539 56.2985C69.4202 42.8841 82.0344 32.5406 96.8679 26.7674C111.701 20.9941 127.983 20.091 143.354 24.189C158.724 28.2871 172.384 37.1732 182.354 49.5595C192.324 61.9458 198.085 77.1885 198.802 93.0781" stroke="#FFCB05" stroke-width="0.96" stroke-linecap="round" stroke-linejoin="round"/>
<path d="M207.03 142.029C196.803 160.63 180.635 175.27 161.111 183.608C141.588 191.946 119.838 193.5 99.342 188.021C78.8461 182.541 60.7888 170.346 48.0595 153.385C35.3302 136.425 28.6646 115.68 29.1294 94.4694" stroke="#3D404C" stroke-width="2.87" stroke-linecap="round" stroke-linejoin="round"/>
<path d="M40.8655 50.9548C51.0922 32.3544 67.2609 17.7138 86.7844 9.37573C106.308 1.03764 128.058 -0.516038 148.554 4.96332C169.049 10.4427 187.107 22.6384 199.836 39.5989C212.565 56.5595 219.231 77.3045 218.766 98.5147" stroke="#3D404C" stroke-width="2.87" stroke-linecap="round" stroke-linejoin="round"/>
<path d="M203.885 70.5386L203.349 67.5337L201.425 69.8807L198.638 69.5089L200.033 71.9594L198.909 74.5204L201.631 73.9293L203.715 75.8052L204.026 73.0269L206.508 71.6129L203.885 70.5386Z" fill="#FFCB05"/>
<path d="M180.375 158.08L179.838 155.075L177.914 157.422L175.128 157.051L176.522 159.501L175.399 162.062L178.121 161.471L180.205 163.347L180.516 160.569L182.998 159.155L180.375 158.08Z" fill="#FFCB05"/>
<path d="M196.52 52.658L195.983 49.6532L194.059 52.0001L191.276 51.6168L192.667 54.0788L191.547 56.6283L194.269 56.0372L196.353 57.913L196.66 55.1463L199.146 53.7208L196.52 52.658Z" fill="#FFCB05"/>
<path d="M165.444 168.37L164.908 165.366L162.983 167.713L160.2 167.329L161.595 169.78L160.471 172.341L163.193 171.75L165.277 173.625L165.588 170.847L168.07 169.433L165.444 168.37Z" fill="#FFCB05"/>
<path d="M67.761 34.1471L69.7316 31.8126L70.2218 34.805L72.8213 35.8731L70.3854 37.2995L70.0748 40.0778L68.014 38.2082L65.2691 38.7931L66.3924 36.232L64.9512 33.7692L67.761 34.1471Z" fill="#FFCB05"/>
<path d="M44.2507 121.689L46.2213 119.354L46.7116 122.347L49.3111 123.415L46.8752 124.841L46.5645 127.62L44.5037 125.75L41.7589 126.335L42.8821 123.774L41.441 121.311L44.2507 121.689Z" fill="#FFCB05"/>
<path d="M83.1003 22.3364L85.0709 20.0019L85.5612 22.9943L88.1638 24.0509L85.7248 25.4889L85.4172 28.2555L83.3564 26.3859L80.6116 26.9708L81.7317 24.4214L80.2937 21.9469L83.1003 22.3364Z" fill="#FFCB05"/>
<path d="M52.0246 138.049L53.9952 135.714L54.4855 138.707L57.0881 139.763L54.6522 141.19L54.3415 143.968L52.2808 142.098L49.5359 142.683L50.6592 140.122L49.218 137.659L52.0246 138.049Z" fill="#FFCB05"/>
<path d="M31.2917 52.9298L226.125 105.017L213.522 120.21L216.925 139.274L22.0916 87.1871L34.6485 72.1671L31.2917 52.9298Z" fill="#3D404C"/>
<path d="M62.2062 84.3187L63.7351 72.5693L63.6836 72.5555L59.2481 83.5279L62.2062 84.3187ZM53.2837 89.2089L62.5772 67.4873L67.1302 68.7045L64.4989 92.2072L61.2835 91.3476L61.8254 87.1739L58.1728 86.1974L56.6019 90.096L53.2837 89.2089Z" fill="white"/>
<path d="M73.7415 83.304L72.6492 82.957L69.7854 93.6205L66.3386 92.699L72.4039 70.1144L78.1015 71.6376C79.2848 71.9539 80.1036 72.4295 80.558 73.0645C81.0147 73.6908 81.2182 74.4559 81.1685 75.3595C81.1297 76.2568 80.9253 77.3942 80.5555 78.7715C80.1879 80.1403 79.7618 81.145 79.2773 81.7856C78.7928 82.4263 78.1228 82.7652 77.2673 82.8024C78.0108 83.1479 78.414 83.8196 78.4768 84.8175C78.5397 85.8154 78.1817 87.7643 77.4028 90.6644C76.6263 93.556 76.2522 95.1201 76.2805 95.3569L72.8336 94.4354C72.7938 94.2414 73.4758 91.5309 74.8796 86.3039C75.1484 85.303 75.2064 84.6079 75.0536 84.2186C74.9031 83.8208 74.4658 83.5159 73.7415 83.304ZM73.3789 80.2913L74.7551 80.6592C75.1924 80.7761 75.5403 80.7637 75.799 80.6219C76.0662 80.4825 76.3027 80.1835 76.5085 79.7251C76.7229 79.269 76.9622 78.549 77.2264 77.5652L77.2643 77.424C77.5929 76.2007 77.7048 75.3733 77.6001 74.9419C77.4954 74.5105 77.0701 74.195 76.3241 73.9956L75.1537 73.6827L73.3789 80.2913Z" fill="white"/>
<path d="M78.9305 96.0653L84.9958 73.4807L88.4427 74.4021L82.3773 96.9868L78.9305 96.0653Z" fill="white"/>
<path d="M84.9373 97.6712L85.7575 94.6171L94.901 79.3058L90.631 78.1642L91.427 75.2L99.3111 77.3077L98.5633 80.0923L89.3474 95.6731L93.939 96.9007L93.1429 99.8649L84.9373 97.6712Z" fill="white"/>
<path d="M100.14 95.0101C99.7843 96.3361 99.6347 97.2864 99.6918 97.861C99.7574 98.4378 100.103 98.8099 100.729 98.9773C101.355 99.1446 101.838 98.9894 102.178 98.5117C102.519 98.0255 102.865 97.1322 103.214 95.8319L106.04 85.3095C106.327 84.2401 106.434 83.4341 106.359 82.8915C106.295 82.3426 105.967 81.9891 105.375 81.8309C104.792 81.675 104.314 81.8131 103.941 82.2451C103.578 82.6708 103.255 83.4141 102.97 84.4749L100.14 95.0101ZM106.684 96.7183C106.092 98.9255 105.255 100.467 104.174 101.342C103.094 102.218 101.683 102.423 99.9425 101.958C98.2105 101.495 97.0831 100.611 96.5603 99.3069C96.0484 97.9964 96.0877 96.2419 96.6781 94.0433L99.4523 83.7133C100.564 79.5728 102.814 77.9553 106.201 78.8607C107.95 79.3283 109.065 80.1903 109.545 81.4465C110.034 82.7051 110.005 84.3524 109.459 86.3884L106.684 96.7183Z" fill="white"/>
<path d="M107.6 103.73L113.666 81.1452L116.366 81.8673L117.525 96.7006L118.934 90.4758L120.919 83.0845L124.019 83.9131L117.954 106.498L115.51 105.845L114.351 90.502L112.952 96.4821L110.777 104.579L107.6 103.73Z" fill="white"/>
<path d="M128.729 102.103L130.258 90.3534L130.206 90.3397L125.771 101.312L128.729 102.103ZM119.806 106.993L129.1 85.2714L133.653 86.4886L131.021 109.991L127.806 109.132L128.348 104.958L124.695 103.982L123.124 107.88L119.806 106.993Z" fill="white"/>
<path d="M136.043 96.6862L138.73 91.5044L136.762 90.9783L137.731 87.3725L142.219 88.5725L141.282 92.0628L138.023 97.2157L136.043 96.6862Z" fill="white"/>
<path d="M139.918 105.562L140.459 103.547L143.726 104.42L143.116 106.692C142.778 107.949 142.647 108.863 142.724 109.434C142.803 109.996 143.138 110.356 143.73 110.514C144.321 110.672 144.768 110.567 145.069 110.198C145.379 109.832 145.661 109.174 145.916 108.224C146.171 107.275 146.221 106.403 146.067 105.61C145.914 104.808 145.569 103.923 145.03 102.953L143.819 100.787C143.257 99.7657 142.875 98.7603 142.672 97.7708C142.478 96.7836 142.534 95.7168 142.842 94.5705C143.343 92.7055 144.075 91.4159 145.039 90.7017C146.003 89.9874 147.364 89.8652 149.121 90.3351C150.879 90.8051 151.924 91.6529 152.257 92.8788C152.6 94.0983 152.499 95.7219 151.955 97.7494L151.579 99.1481L148.402 98.2988L148.837 96.6819C149.131 95.5869 149.247 94.7789 149.184 94.258C149.124 93.7285 148.824 93.3915 148.284 93.2471C147.753 93.105 147.318 93.1815 146.982 93.4766C146.654 93.774 146.393 94.282 146.2 95.0006C146.007 95.7193 145.973 96.3245 146.099 96.8164C146.224 97.3084 146.51 97.9716 146.957 98.8062L148.28 101.319C148.944 102.579 149.372 103.789 149.566 104.95C149.768 106.114 149.705 107.307 149.377 108.531C148.809 110.644 148.034 112.11 147.051 112.929C146.068 113.748 144.685 113.919 142.902 113.443C141.127 112.968 140.038 112.076 139.636 110.768C139.245 109.453 139.339 107.718 139.918 105.562Z" fill="white"/>
<path d="M168.186 101.937C167.534 104.367 166.473 105.683 165.003 105.886C166.47 106.856 166.799 108.847 165.991 111.858L165.836 112.436C165.21 114.698 164.372 116.225 163.323 117.018C162.283 117.812 160.884 117.975 159.126 117.505L154.123 116.167L160.188 93.5825L165.088 94.8926C166.777 95.3441 167.868 96.0574 168.36 97.0324C168.854 97.9989 168.858 99.4029 168.372 101.244L168.186 101.937ZM158.286 114.42L159.508 114.746C160.194 114.93 160.737 114.823 161.138 114.426C161.539 114.028 161.902 113.222 162.229 112.008L162.718 110.185C163.026 109.039 163.132 108.201 163.035 107.671C162.941 107.132 162.576 106.778 161.942 106.608L160.488 106.22L158.286 114.42ZM161.181 103.641L162.454 103.981C163.046 104.139 163.482 104.054 163.764 103.726C164.053 103.4 164.356 102.651 164.67 101.479L165.036 100.119C165.261 99.2437 165.298 98.6299 165.144 98.2771C164.993 97.9158 164.635 97.6595 164.069 97.5082L162.911 97.1988L161.181 103.641Z" fill="white"/>
<path d="M166.277 119.417L172.343 96.8319L179.931 98.8606L179.135 101.825L174.993 100.718L173.229 107.288L177.165 108.34L176.386 111.24L172.45 110.188L170.52 117.374L174.816 118.522L174.02 121.487L166.277 119.417Z" fill="white"/>
<path d="M177.501 115.609L178.042 113.595L181.309 114.468L180.699 116.739C180.361 117.997 180.231 118.911 180.307 119.481C180.386 120.043 180.721 120.404 181.313 120.562C181.904 120.72 182.351 120.615 182.652 120.246C182.962 119.879 183.244 119.221 183.499 118.272C183.754 117.322 183.805 116.451 183.65 115.658C183.498 114.856 183.152 113.97 182.613 113.001L181.403 110.834C180.841 109.813 180.458 108.808 180.255 107.818C180.061 106.831 180.117 105.764 180.425 104.618C180.926 102.753 181.659 101.463 182.622 100.749C183.586 100.035 184.947 99.9127 186.705 100.383C188.462 100.853 189.507 101.7 189.84 102.926C190.183 104.146 190.083 105.769 189.538 107.797L189.162 109.196L185.986 108.346L186.42 106.729C186.714 105.634 186.83 104.826 186.768 104.305C186.708 103.776 186.408 103.439 185.867 103.295C185.336 103.153 184.902 103.229 184.565 103.524C184.237 103.822 183.977 104.33 183.784 105.048C183.591 105.767 183.557 106.372 183.682 106.864C183.807 107.356 184.093 108.019 184.54 108.854L185.864 111.367C186.527 112.626 186.956 113.837 187.149 114.998C187.351 116.161 187.288 117.355 186.96 118.578C186.392 120.691 185.617 122.157 184.634 122.976C183.652 123.796 182.269 123.967 180.485 123.49C178.71 123.015 177.622 122.124 177.22 120.815C176.828 119.5 176.922 117.765 177.501 115.609Z" fill="white"/>
<path d="M188.529 125.365L193.794 105.758L191.145 105.049L191.944 102.072L200.575 104.379L199.775 107.357L197.228 106.676L191.963 126.283L188.529 125.365Z" fill="white"/>
</g>
<defs>
<clipPath id="clip0_108:1680">
<rect width="248" height="193" fill="white"/>
</clipPath>
</defs>
</svg>
