<svg width="262" height="96" viewBox="0 0 262 96" fill="none" xmlns="http://www.w3.org/2000/svg">
<path fill-rule="evenodd" clip-rule="evenodd" d="M121.829 43.9313L-0.000488281 43.9313L58.2327 68.2133L121.829 43.9313ZM203.268 68.2545L261.6 43.9314L139.563 43.9313L203.268 68.2545ZM73.5033 74.1631L130.696 52.3262L187.889 74.1631L130.696 96L73.5033 74.1631Z" fill="white"/>
<mask id="path-2-inside-1_182:241" fill="white">
<path d="M7.01953 39.6025V21.1701H26.2415V27.6735H15.9457V29.3326H26.2415V34.9157H15.9457V39.6025H7.01953Z"/>
<path d="M39.5234 39.6025V21.1701H48.4496V33.0264H55.869V39.6025H39.5234Z"/>
<path d="M79.2299 34.6613C80.1126 34.6613 80.8013 34.3222 81.2959 33.644C81.7906 32.9658 82.0379 32.0172 82.0379 30.798C82.0379 29.5224 81.802 28.5656 81.3302 27.9278C80.866 27.2819 80.1659 26.959 79.2299 26.959C78.2939 26.959 77.59 27.2819 77.1182 27.9278C76.654 28.5656 76.4219 29.5224 76.4219 30.798C76.4219 32.0252 76.6655 32.978 77.1525 33.6561C77.6471 34.3263 78.3396 34.6613 79.2299 34.6613ZM79.2299 40.1717C75.212 40.1717 72.2328 39.3724 70.2924 37.7738C68.3519 36.1671 67.3817 33.7006 67.3817 30.3742C67.3817 27.0639 68.3481 24.6095 70.2809 23.0109C72.2214 21.4042 75.2044 20.6009 79.2299 20.6009C83.2554 20.6009 86.2384 21.4042 88.1789 23.0109C90.1269 24.6095 91.101 27.0639 91.101 30.3742C91.101 33.7006 90.1269 36.1671 88.1789 37.7738C86.2384 39.3724 83.2554 40.1717 79.2299 40.1717Z"/>
<path d="M115.09 34.6613C115.972 34.6613 116.661 34.3222 117.156 33.644C117.65 32.9658 117.898 32.0172 117.898 30.798C117.898 29.5224 117.662 28.5656 117.19 27.9278C116.726 27.2819 116.026 26.959 115.09 26.959C114.154 26.959 113.45 27.2819 112.978 27.9278C112.514 28.5656 112.282 29.5224 112.282 30.798C112.282 32.0252 112.525 32.978 113.012 33.6561C113.507 34.3263 114.199 34.6613 115.09 34.6613ZM115.09 40.1717C111.072 40.1717 108.093 39.3724 106.152 37.7738C104.212 36.1671 103.241 33.7006 103.241 30.3742C103.241 27.0639 104.208 24.6095 106.141 23.0109C108.081 21.4042 111.064 20.6009 115.09 20.6009C119.115 20.6009 122.098 21.4042 124.039 23.0109C125.987 24.6095 126.961 27.0639 126.961 30.3742C126.961 33.7006 125.987 36.1671 124.039 37.7738C122.098 39.3724 119.115 40.1717 115.09 40.1717Z"/>
<path d="M148.678 29.9745H150.39C151.57 29.9745 152.407 29.8211 152.901 29.5143C153.396 29.2075 153.643 28.6908 153.643 27.9641C153.643 27.3505 153.43 26.9226 153.004 26.6804C152.578 26.4301 151.767 26.305 150.573 26.305H148.678V29.9745ZM139.797 39.6025V21.1701H156.531C158.449 21.1701 159.898 21.6101 160.88 22.4901C161.862 23.3702 162.353 24.666 162.353 26.3776C162.353 28.0085 161.9 29.2923 160.994 30.2288C160.089 31.1654 158.734 31.7427 156.931 31.9607L163.037 39.6025H152.73L149.591 35.3153C149.462 35.1296 149.306 34.8955 149.123 34.6129C148.941 34.3303 148.754 34.0275 148.564 33.7046C148.602 34.1648 148.629 34.625 148.644 35.0852C148.667 35.5454 148.678 36.0016 148.678 36.4537V39.6025H139.797Z"/>
<path d="M175.178 39.6025V21.1701H184.161V39.6025H175.178Z"/>
<path d="M197.751 39.6025V21.1701H206.654L209.999 26.2808C210.364 26.8621 210.665 27.3546 210.901 27.7583C211.137 28.1619 211.357 28.5616 211.563 28.9572C211.555 28.5455 211.547 28.1216 211.54 27.6856C211.54 27.2496 211.54 26.6764 211.54 25.9659V21.1701H220.009V39.6025H212.248L207.636 33.4745C207.324 33.0466 207.039 32.6267 206.78 32.215C206.529 31.8032 206.301 31.3915 206.095 30.9797C206.133 31.6014 206.16 32.1746 206.175 32.6994C206.198 33.2161 206.209 33.5996 206.209 33.8499V39.6025H197.751Z"/>
<path d="M254.374 38.4399C252.806 39.0131 251.185 39.445 249.511 39.7357C247.837 40.0264 246.106 40.1717 244.318 40.1717C240.513 40.1717 237.652 39.3522 235.734 37.7132C233.824 36.0742 232.869 33.6279 232.869 30.3742C232.869 27.1527 233.854 24.7306 235.825 23.1078C237.804 21.4849 240.768 20.6735 244.717 20.6735C246.323 20.6735 247.913 20.7543 249.488 20.9157C251.064 21.0772 252.62 21.3194 254.157 21.6424V28.0974C252.688 27.9359 251.368 27.8148 250.196 27.734C249.024 27.6452 248.054 27.6008 247.286 27.6008C245.33 27.6008 243.865 27.9278 242.891 28.5818C241.924 29.2358 241.441 30.2208 241.441 31.5368C241.441 32.7317 241.826 33.644 242.594 34.2738C243.363 34.9035 244.478 35.2184 245.939 35.2184C245.984 35.2184 246.053 35.2144 246.144 35.2063C246.235 35.1902 246.304 35.1821 246.35 35.1821V30.2046H254.374V38.4399Z"/>
</mask>
<path d="M7.01953 39.6025V21.1701H26.2415V27.6735H15.9457V29.3326H26.2415V34.9157H15.9457V39.6025H7.01953Z" fill="white"/>
<path d="M39.5234 39.6025V21.1701H48.4496V33.0264H55.869V39.6025H39.5234Z" fill="white"/>
<path d="M79.2299 34.6613C80.1126 34.6613 80.8013 34.3222 81.2959 33.644C81.7906 32.9658 82.0379 32.0172 82.0379 30.798C82.0379 29.5224 81.802 28.5656 81.3302 27.9278C80.866 27.2819 80.1659 26.959 79.2299 26.959C78.2939 26.959 77.59 27.2819 77.1182 27.9278C76.654 28.5656 76.4219 29.5224 76.4219 30.798C76.4219 32.0252 76.6655 32.978 77.1525 33.6561C77.6471 34.3263 78.3396 34.6613 79.2299 34.6613ZM79.2299 40.1717C75.212 40.1717 72.2328 39.3724 70.2924 37.7738C68.3519 36.1671 67.3817 33.7006 67.3817 30.3742C67.3817 27.0639 68.3481 24.6095 70.2809 23.0109C72.2214 21.4042 75.2044 20.6009 79.2299 20.6009C83.2554 20.6009 86.2384 21.4042 88.1789 23.0109C90.1269 24.6095 91.101 27.0639 91.101 30.3742C91.101 33.7006 90.1269 36.1671 88.1789 37.7738C86.2384 39.3724 83.2554 40.1717 79.2299 40.1717Z" fill="white"/>
<path d="M115.09 34.6613C115.972 34.6613 116.661 34.3222 117.156 33.644C117.65 32.9658 117.898 32.0172 117.898 30.798C117.898 29.5224 117.662 28.5656 117.19 27.9278C116.726 27.2819 116.026 26.959 115.09 26.959C114.154 26.959 113.45 27.2819 112.978 27.9278C112.514 28.5656 112.282 29.5224 112.282 30.798C112.282 32.0252 112.525 32.978 113.012 33.6561C113.507 34.3263 114.199 34.6613 115.09 34.6613ZM115.09 40.1717C111.072 40.1717 108.093 39.3724 106.152 37.7738C104.212 36.1671 103.241 33.7006 103.241 30.3742C103.241 27.0639 104.208 24.6095 106.141 23.0109C108.081 21.4042 111.064 20.6009 115.09 20.6009C119.115 20.6009 122.098 21.4042 124.039 23.0109C125.987 24.6095 126.961 27.0639 126.961 30.3742C126.961 33.7006 125.987 36.1671 124.039 37.7738C122.098 39.3724 119.115 40.1717 115.09 40.1717Z" fill="white"/>
<path d="M148.678 29.9745H150.39C151.57 29.9745 152.407 29.8211 152.901 29.5143C153.396 29.2075 153.643 28.6908 153.643 27.9641C153.643 27.3505 153.43 26.9226 153.004 26.6804C152.578 26.4301 151.767 26.305 150.573 26.305H148.678V29.9745ZM139.797 39.6025V21.1701H156.531C158.449 21.1701 159.898 21.6101 160.88 22.4901C161.862 23.3702 162.353 24.666 162.353 26.3776C162.353 28.0085 161.9 29.2923 160.994 30.2288C160.089 31.1654 158.734 31.7427 156.931 31.9607L163.037 39.6025H152.73L149.591 35.3153C149.462 35.1296 149.306 34.8955 149.123 34.6129C148.941 34.3303 148.754 34.0275 148.564 33.7046C148.602 34.1648 148.629 34.625 148.644 35.0852C148.667 35.5454 148.678 36.0016 148.678 36.4537V39.6025H139.797Z" fill="white"/>
<path d="M175.178 39.6025V21.1701H184.161V39.6025H175.178Z" fill="white"/>
<path d="M197.751 39.6025V21.1701H206.654L209.999 26.2808C210.364 26.8621 210.665 27.3546 210.901 27.7583C211.137 28.1619 211.357 28.5616 211.563 28.9572C211.555 28.5455 211.547 28.1216 211.54 27.6856C211.54 27.2496 211.54 26.6764 211.54 25.9659V21.1701H220.009V39.6025H212.248L207.636 33.4745C207.324 33.0466 207.039 32.6267 206.78 32.215C206.529 31.8032 206.301 31.3915 206.095 30.9797C206.133 31.6014 206.16 32.1746 206.175 32.6994C206.198 33.2161 206.209 33.5996 206.209 33.8499V39.6025H197.751Z" fill="white"/>
<path d="M254.374 38.4399C252.806 39.0131 251.185 39.445 249.511 39.7357C247.837 40.0264 246.106 40.1717 244.318 40.1717C240.513 40.1717 237.652 39.3522 235.734 37.7132C233.824 36.0742 232.869 33.6279 232.869 30.3742C232.869 27.1527 233.854 24.7306 235.825 23.1078C237.804 21.4849 240.768 20.6735 244.717 20.6735C246.323 20.6735 247.913 20.7543 249.488 20.9157C251.064 21.0772 252.62 21.3194 254.157 21.6424V28.0974C252.688 27.9359 251.368 27.8148 250.196 27.734C249.024 27.6452 248.054 27.6008 247.286 27.6008C245.33 27.6008 243.865 27.9278 242.891 28.5818C241.924 29.2358 241.441 30.2208 241.441 31.5368C241.441 32.7317 241.826 33.644 242.594 34.2738C243.363 34.9035 244.478 35.2184 245.939 35.2184C245.984 35.2184 246.053 35.2144 246.144 35.2063C246.235 35.1902 246.304 35.1821 246.35 35.1821V30.2046H254.374V38.4399Z" fill="white"/>
<path d="M7.01953 39.6025V21.1701H26.2415V27.6735H15.9457V29.3326H26.2415V34.9157H15.9457V39.6025H7.01953Z" stroke="white" stroke-width="2" mask="url(#path-2-inside-1_182:241)"/>
<path d="M39.5234 39.6025V21.1701H48.4496V33.0264H55.869V39.6025H39.5234Z" stroke="white" stroke-width="2" mask="url(#path-2-inside-1_182:241)"/>
<path d="M79.2299 34.6613C80.1126 34.6613 80.8013 34.3222 81.2959 33.644C81.7906 32.9658 82.0379 32.0172 82.0379 30.798C82.0379 29.5224 81.802 28.5656 81.3302 27.9278C80.866 27.2819 80.1659 26.959 79.2299 26.959C78.2939 26.959 77.59 27.2819 77.1182 27.9278C76.654 28.5656 76.4219 29.5224 76.4219 30.798C76.4219 32.0252 76.6655 32.978 77.1525 33.6561C77.6471 34.3263 78.3396 34.6613 79.2299 34.6613ZM79.2299 40.1717C75.212 40.1717 72.2328 39.3724 70.2924 37.7738C68.3519 36.1671 67.3817 33.7006 67.3817 30.3742C67.3817 27.0639 68.3481 24.6095 70.2809 23.0109C72.2214 21.4042 75.2044 20.6009 79.2299 20.6009C83.2554 20.6009 86.2384 21.4042 88.1789 23.0109C90.1269 24.6095 91.101 27.0639 91.101 30.3742C91.101 33.7006 90.1269 36.1671 88.1789 37.7738C86.2384 39.3724 83.2554 40.1717 79.2299 40.1717Z" stroke="white" stroke-width="2" mask="url(#path-2-inside-1_182:241)"/>
<path d="M115.09 34.6613C115.972 34.6613 116.661 34.3222 117.156 33.644C117.65 32.9658 117.898 32.0172 117.898 30.798C117.898 29.5224 117.662 28.5656 117.19 27.9278C116.726 27.2819 116.026 26.959 115.09 26.959C114.154 26.959 113.45 27.2819 112.978 27.9278C112.514 28.5656 112.282 29.5224 112.282 30.798C112.282 32.0252 112.525 32.978 113.012 33.6561C113.507 34.3263 114.199 34.6613 115.09 34.6613ZM115.09 40.1717C111.072 40.1717 108.093 39.3724 106.152 37.7738C104.212 36.1671 103.241 33.7006 103.241 30.3742C103.241 27.0639 104.208 24.6095 106.141 23.0109C108.081 21.4042 111.064 20.6009 115.09 20.6009C119.115 20.6009 122.098 21.4042 124.039 23.0109C125.987 24.6095 126.961 27.0639 126.961 30.3742C126.961 33.7006 125.987 36.1671 124.039 37.7738C122.098 39.3724 119.115 40.1717 115.09 40.1717Z" stroke="white" stroke-width="2" mask="url(#path-2-inside-1_182:241)"/>
<path d="M148.678 29.9745H150.39C151.57 29.9745 152.407 29.8211 152.901 29.5143C153.396 29.2075 153.643 28.6908 153.643 27.9641C153.643 27.3505 153.43 26.9226 153.004 26.6804C152.578 26.4301 151.767 26.305 150.573 26.305H148.678V29.9745ZM139.797 39.6025V21.1701H156.531C158.449 21.1701 159.898 21.6101 160.88 22.4901C161.862 23.3702 162.353 24.666 162.353 26.3776C162.353 28.0085 161.9 29.2923 160.994 30.2288C160.089 31.1654 158.734 31.7427 156.931 31.9607L163.037 39.6025H152.73L149.591 35.3153C149.462 35.1296 149.306 34.8955 149.123 34.6129C148.941 34.3303 148.754 34.0275 148.564 33.7046C148.602 34.1648 148.629 34.625 148.644 35.0852C148.667 35.5454 148.678 36.0016 148.678 36.4537V39.6025H139.797Z" stroke="white" stroke-width="2" mask="url(#path-2-inside-1_182:241)"/>
<path d="M175.178 39.6025V21.1701H184.161V39.6025H175.178Z" stroke="white" stroke-width="2" mask="url(#path-2-inside-1_182:241)"/>
<path d="M197.751 39.6025V21.1701H206.654L209.999 26.2808C210.364 26.8621 210.665 27.3546 210.901 27.7583C211.137 28.1619 211.357 28.5616 211.563 28.9572C211.555 28.5455 211.547 28.1216 211.54 27.6856C211.54 27.2496 211.54 26.6764 211.54 25.9659V21.1701H220.009V39.6025H212.248L207.636 33.4745C207.324 33.0466 207.039 32.6267 206.78 32.215C206.529 31.8032 206.301 31.3915 206.095 30.9797C206.133 31.6014 206.16 32.1746 206.175 32.6994C206.198 33.2161 206.209 33.5996 206.209 33.8499V39.6025H197.751Z" stroke="white" stroke-width="2" mask="url(#path-2-inside-1_182:241)"/>
<path d="M254.374 38.4399C252.806 39.0131 251.185 39.445 249.511 39.7357C247.837 40.0264 246.106 40.1717 244.318 40.1717C240.513 40.1717 237.652 39.3522 235.734 37.7132C233.824 36.0742 232.869 33.6279 232.869 30.3742C232.869 27.1527 233.854 24.7306 235.825 23.1078C237.804 21.4849 240.768 20.6735 244.717 20.6735C246.323 20.6735 247.913 20.7543 249.488 20.9157C251.064 21.0772 252.62 21.3194 254.157 21.6424V28.0974C252.688 27.9359 251.368 27.8148 250.196 27.734C249.024 27.6452 248.054 27.6008 247.286 27.6008C245.33 27.6008 243.865 27.9278 242.891 28.5818C241.924 29.2358 241.441 30.2208 241.441 31.5368C241.441 32.7317 241.826 33.644 242.594 34.2738C243.363 34.9035 244.478 35.2184 245.939 35.2184C245.984 35.2184 246.053 35.2144 246.144 35.2063C246.235 35.1902 246.304 35.1821 246.35 35.1821V30.2046H254.374V38.4399Z" stroke="white" stroke-width="2" mask="url(#path-2-inside-1_182:241)"/>
<path d="M15.4053 12.503C15.4767 12.5106 15.5588 12.5182 15.6517 12.5257C15.7445 12.5257 15.8801 12.5257 16.0586 12.5257C17.4723 12.5257 18.5505 12.2572 19.293 11.7202C20.0427 11.1831 20.4175 10.4079 20.4175 9.3943C20.4175 8.35805 20.0962 7.61301 19.4537 7.15918C18.8111 6.69779 17.7508 6.46709 16.2728 6.46709C16.0372 6.46709 15.8587 6.47087 15.7373 6.47844C15.616 6.47844 15.5053 6.48222 15.4053 6.48978V12.503ZM7.01953 17.8015V0.533251H19.55C22.6345 0.533251 24.9656 1.21778 26.5436 2.58684C28.1215 3.95589 28.9104 5.97544 28.9104 8.64548C28.9104 9.7498 28.7605 10.7823 28.4606 11.7429C28.1607 12.7035 27.7181 13.5695 27.1326 14.3411C26.1901 15.5588 25.0263 16.44 23.6412 16.9846C22.2561 17.5292 20.4318 17.8015 18.1685 17.8015H7.01953Z" fill="white"/>
<path d="M31.1167 17.8015V0.533251H39.5453V17.8015H31.1167Z" fill="white"/>
<path d="M50.7799 10.7898H54.1642L53.1361 7.44283C53.0004 6.989 52.8755 6.51247 52.7612 6.01326C52.6541 5.51404 52.5578 4.98836 52.4721 4.4362C52.3793 5.02618 52.2793 5.57456 52.1722 6.08133C52.0651 6.58055 51.9473 7.03438 51.8188 7.44283L50.7799 10.7898ZM40.7555 17.8015L46.0248 0.533251H58.898L64.1886 17.8015H55.6957L55.0639 15.5664H49.8803L49.2056 17.8015H40.7555Z" fill="white"/>
<path d="M72.9386 8.15761C72.9671 8.65682 72.9886 9.14469 73.0028 9.62121C73.0171 10.0902 73.0243 10.6159 73.0243 11.1983V17.8015H65.3667V0.533251H75.766L77.4367 6.39901C77.4581 6.48222 77.4938 6.6108 77.5438 6.78477C77.8722 7.95717 78.0971 8.87239 78.2185 9.53045C78.3328 8.97072 78.5612 8.07819 78.904 6.85285L79.0111 6.46709L80.6604 0.533251H91.0703V17.8015H83.4235V11.3004C83.4235 10.96 83.4271 10.5251 83.4342 9.99562C83.4485 9.46616 83.4663 8.85727 83.4878 8.16896C83.3592 8.64548 83.2272 9.122 83.0915 9.59852C82.9558 10.0675 82.7881 10.6159 82.5881 11.2437L80.4997 17.8015H75.9373L73.7954 11.1302C73.6169 10.5705 73.4598 10.0561 73.3241 9.58718C73.1885 9.11065 73.06 8.63413 72.9386 8.15761Z" fill="white"/>
<path d="M104.383 13.1724C105.211 13.1724 105.857 12.8548 106.321 12.2194C106.785 11.584 107.017 10.6953 107.017 9.55314C107.017 8.35805 106.796 7.46174 106.353 6.86419C105.918 6.25908 105.261 5.95653 104.383 5.95653C103.504 5.95653 102.844 6.25908 102.401 6.86419C101.966 7.46174 101.748 8.35805 101.748 9.55314C101.748 10.7028 101.977 11.5954 102.433 12.2307C102.898 12.8585 103.547 13.1724 104.383 13.1724ZM104.383 18.3348C100.613 18.3348 97.8175 17.5859 95.9968 16.0883C94.1762 14.5831 93.2658 12.2723 93.2658 9.15604C93.2658 6.05486 94.1726 3.75545 95.9861 2.25781C97.8068 0.752603 100.606 0 104.383 0C108.16 0 110.958 0.752603 112.779 2.25781C114.607 3.75545 115.521 6.05486 115.521 9.15604C115.521 12.2723 114.607 14.5831 112.779 16.0883C110.958 17.5859 108.16 18.3348 104.383 18.3348Z" fill="white"/>
<path d="M117.695 17.8015V0.533251H126.049L129.187 5.32117C129.529 5.86576 129.811 6.32716 130.033 6.70535C130.254 7.08354 130.461 7.45795 130.654 7.82858C130.647 7.44283 130.64 7.04572 130.632 6.63728C130.632 6.22883 130.632 5.6918 130.632 5.02618V0.533251H138.579V17.8015H131.296L126.97 12.0606C126.677 11.6597 126.409 11.2664 126.166 10.8806C125.931 10.4948 125.717 10.1091 125.524 9.72333C125.56 10.3057 125.585 10.8428 125.599 11.3344C125.62 11.8185 125.631 12.1778 125.631 12.4123V17.8015H117.695Z" fill="white"/>
<path d="M149.814 12.503C149.885 12.5106 149.967 12.5182 150.06 12.5257C150.153 12.5257 150.289 12.5257 150.467 12.5257C151.881 12.5257 152.959 12.2572 153.701 11.7202C154.451 11.1831 154.826 10.4079 154.826 9.3943C154.826 8.35805 154.505 7.61301 153.862 7.15918C153.22 6.69779 152.159 6.46709 150.681 6.46709C150.446 6.46709 150.267 6.47087 150.146 6.47844C150.024 6.47844 149.914 6.48222 149.814 6.48978V12.503ZM141.428 17.8015V0.533251H153.958C157.043 0.533251 159.374 1.21778 160.952 2.58684C162.53 3.95589 163.319 5.97544 163.319 8.64548C163.319 9.7498 163.169 10.7823 162.869 11.7429C162.569 12.7035 162.127 13.5695 161.541 14.3411C160.599 15.5588 159.435 16.44 158.05 16.9846C156.665 17.5292 154.84 17.8015 152.577 17.8015H141.428Z" fill="white"/>
<path d="M173.707 7.55628H176.695C177.217 7.55628 177.617 7.45417 177.895 7.24995C178.173 7.03816 178.313 6.73561 178.313 6.34229C178.313 5.92627 178.198 5.63128 177.97 5.45732C177.741 5.27578 177.345 5.18502 176.781 5.18502H173.707V7.55628ZM173.707 13.5922H176.62C177.306 13.5922 177.806 13.4939 178.12 13.2972C178.441 13.1006 178.602 12.7905 178.602 12.3669C178.602 11.9509 178.455 11.6408 178.163 11.4365C177.87 11.2323 177.424 11.1302 176.824 11.1302H173.707V13.5922ZM165.504 17.8015V0.533251H180.508C182.586 0.533251 184.117 0.877406 185.103 1.56572C186.088 2.25403 186.581 3.32053 186.581 4.76522C186.581 5.93006 186.184 6.89067 185.392 7.64705C184.599 8.40343 183.432 8.92912 181.89 9.22411C183.575 9.42834 184.792 9.84813 185.542 10.4835C186.291 11.1113 186.666 12.0341 186.666 13.2519C186.666 14.7722 186.113 15.9106 185.006 16.6669C183.907 17.4233 182.254 17.8015 180.048 17.8015H165.504Z" fill="white"/>
<path d="M197.162 10.7898H200.546L199.518 7.44283C199.382 6.989 199.258 6.51247 199.143 6.01326C199.036 5.51404 198.94 4.98836 198.854 4.4362C198.761 5.02618 198.661 5.57456 198.554 6.08133C198.447 6.58055 198.329 7.03438 198.201 7.44283L197.162 10.7898ZM187.138 17.8015L192.407 0.533251H205.28L210.571 17.8015H202.078L201.446 15.5664H196.262L195.588 17.8015H187.138Z" fill="white"/>
<path d="M229.913 17.3817C228.456 17.6994 227.078 17.9377 225.779 18.0965C224.479 18.2553 223.255 18.3348 222.105 18.3348C218.414 18.3348 215.654 17.5746 213.826 16.0543C212.006 14.5339 211.095 12.2345 211.095 9.15604C211.095 6.09268 212.013 3.81218 213.848 2.31454C215.683 0.816896 218.471 0.0680746 222.212 0.0680746C223.219 0.0680746 224.347 0.128585 225.597 0.249607C226.853 0.370629 228.292 0.559725 229.913 0.816896V7.60167C228.763 7.38988 227.717 7.23482 226.775 7.13649C225.832 7.0306 225 6.97765 224.279 6.97765C222.773 6.97765 221.652 7.20078 220.916 7.64705C220.188 8.08575 219.824 8.75894 219.824 9.6666C219.824 10.5062 220.138 11.134 220.766 11.55C221.402 11.966 222.352 12.174 223.615 12.174C224.686 12.174 225.743 12.1097 226.785 11.9811C227.828 11.845 228.87 11.6408 229.913 11.3685V17.3817Z" fill="white"/>
<path d="M232.312 17.8015V0.533251H240.515V4.92406C240.515 5.13585 240.508 5.43084 240.494 5.80903C240.48 6.18723 240.451 6.76208 240.408 7.53359C240.523 7.26886 240.658 6.989 240.815 6.69401C240.972 6.39145 241.165 6.04351 241.394 5.65019L244.35 0.533251H254.374L247.509 9.43968L253.935 17.8015H244.596L241.586 13.6943C241.351 13.354 241.133 13.0212 240.933 12.6959C240.74 12.3707 240.565 12.0454 240.408 11.7202C240.444 12.4009 240.469 12.9644 240.483 13.4107C240.505 13.8494 240.515 14.2276 240.515 14.5453V17.8015H232.312Z" fill="white"/>
</svg>
